<?xml version="1.0" standalone="no"?>
<!DOCTYPE svg PUBLIC "-//W3C//DTD SVG 1.1//EN" "http://www.w3.org/Graphics/SVG/1.1/DTD/svg11.dtd" >
<svg xmlns="http://www.w3.org/2000/svg">
<metadata></metadata>
<defs>
<font id="logisosomedium" horiz-adv-x="921" >
<font-face units-per-em="2048" ascent="1638" descent="-410" />
<missing-glyph horiz-adv-x="500" />
<glyph horiz-adv-x="2048" />
<glyph horiz-adv-x="2048" />
<glyph unicode="&#xd;" horiz-adv-x="681" />
<glyph />
<glyph />
<glyph unicode=" " />
<glyph unicode="!" horiz-adv-x="532" d="M178 86q0 37 26 61q27 25 61 25q36 0 61 -25q24 -24 24 -61t-24 -61q-25 -25 -61 -25q-34 0 -61 25q-26 24 -26 61zM178 303v1116q0 13 15 13h145q16 0 16 -13v-1116q0 -14 -16 -14h-145q-15 0 -15 14z" />
<glyph unicode="&#x22;" d="M267 1327q-9 35 9 65q17 29 54 37q35 8 64 -10q30 -18 39 -53q9 -34 -9 -63l-74 -123q-4 -4 -10 -4h-14q-11 0 -11 10v76q0 6 -6 10l-2 1l-2 1q-29 18 -38 53zM488 1327q-9 34 10 65q18 30 53 38q34 7 64 -11t39 -53q9 -34 -9 -63l-74 -123q-4 -4 -10 -4h-14 q-10 0 -10 10v76q0 5 -7 10l-2 1l-2 1q-29 18 -38 53z" />
<glyph unicode="#" d="M100 465v151q0 15 15 15h98l23 155h-121q-15 0 -15 15v151q0 15 15 15h149l70 456q2 9 14 9h164h4q11 -4 10 -19l-69 -446h104l70 456q2 9 14 9h164h4q11 -4 10 -19l-69 -446h53q14 0 14 -15v-151q0 -15 -14 -15h-80l-25 -155h105q14 0 14 -15v-151q0 -14 -14 -14h-133 l-68 -443q-2 -8 -12 -8h-164h-4q-11 4 -10 18l65 433h-104l-68 -443q-2 -8 -12 -8h-164h-4q-11 4 -10 18l65 433h-69q-15 0 -15 14zM406 631h104l22 155h-102z" />
<glyph unicode="$" d="M102 348q0 -145 113 -250q71 -67 158 -88v-190q0 -13 12 -13h154q12 0 12 13v190q97 23 170 103q103 109 98 256q-1 70 -33 141q-33 68 -88 117l-356 313q-55 49 -59 125q-5 73 45 129q49 54 123 59q73 5 129 -45q36 -32 59 -125q2 -8 12 -8h158q10 0 10 10 q0 144 -112 250q-68 65 -156 88v181q0 10 -12 10h-154q-12 0 -12 -10v-181q-98 -24 -172 -104q-103 -108 -99 -256q1 -70 33 -141q33 -68 88 -117l357 -313q54 -49 59 -123q5 -73 -45 -129q-50 -57 -123 -61q-74 -5 -129 46q-42 36 -59 123q-1 10 -13 10h-157q-11 0 -11 -10 z" />
<glyph unicode="%" d="M97 -16l544 1451h182l-544 -1451h-182zM97 1254q0 75 53 128t129 53q75 0 128 -53t53 -128q0 -76 -53 -129t-128 -53q-76 0 -129 53t-53 129zM233 1254q0 -19 13 -32t33 -13q19 0 32 13t13 32t-13 32t-32 13q-20 0 -33 -13t-13 -32zM460 165q0 75 53 128t128 53t128 -53 q54 -54 54 -128t-54 -128q-53 -53 -128 -53t-128 53t-53 128zM596 165q0 -19 13 -32t32 -13t32 13q14 14 14 32t-14 32q-13 13 -32 13t-32 -13t-13 -32z" />
<glyph unicode="&#x26;" d="M98 363v93v88v93q0 160 118 268l-45 101q-28 64 -28 129q0 129 90 222t219 96h9h8q3 0 8 -0.5t7 -0.5t5 -0.5t4 -0.5q2 0 7 -0.5t7 -1.5h4q3 0 5 -0.5t4 -0.5l1 -1q2 0 8 -2h1q2 0 5 -0.5t5 -1.5l12 -4q14 -4 21 -7q4 -2 10 -4q1 0 5 -2l6 -3q5 -2 9 -4h1q16 -8 28 -16 v-1l9 -6q12 -8 18 -13l9 -7l23 -23q87 -91 87 -218h-181q0 57 -40 97q-39 39 -96 39q-58 0 -97 -39t-39 -97q0 -32 13 -58v-1l39 -86l77 -172l188 -416v234h181v-273q0 -117 -68 -212l68 -151h-199l-14 32q-72 -32 -149 -32q-151 0 -257 106t-106 257zM279 363 q0 -75 53 -128t129 -53q39 0 74 16l-236 522q-20 -40 -20 -83v-93v-88v-93z" />
<glyph unicode="'" horiz-adv-x="532" d="M182 1327q-8 35 12 65q20 31 53 38q34 7 64 -11q32 -19 39 -53q7 -27 -10 -63l-61 -123q-8 -14 -25 -14h-12q-13 0 -13 20v76q0 10 -4 10q-2 0 -3 1l-1 1q-32 19 -39 53z" />
<glyph unicode="(" d="M264 705q15 -383 207 -701q8 -12 21 -4l131 78q11 6 4 20q-183 280 -185 607q-6 331 183 616q8 12 -4 18l-129 78q-13 8 -21 -4q-217 -365 -207 -708z" />
<glyph unicode=")" d="M295 102q182 278 184 607q6 332 -182 616q-8 12 4 18l129 78q13 8 21 -4q217 -363 206 -708q-15 -385 -206 -701q-8 -12 -21 -4l-131 78q-11 6 -4 20z" />
<glyph unicode="*" d="M152 1221l173 100l-173 100l68 118l172 -100v199h136v-199l173 100l68 -118l-173 -100l173 -100l-68 -118l-173 100v-200h-136v200l-172 -100z" />
<glyph unicode="+" d="M188 454v181h182v181h181v-181h181v-181h-181v-182h-181v182h-182z" />
<glyph unicode="," horiz-adv-x="532" d="M175 92q0 17 7 33q8 18 20 28q13 13 29 20t35 7t35 -7t29 -20t20 -29t7 -35q1 -18 -2 -64q0 -4 -0.5 -17.5t-0.5 -17.5q-1 -18 -13.5 -51.5t-23.5 -47.5t-40 -34.5t-46 -26.5q-25 -9 -53 -9l1 73q23 5 39 18q19 16 25 35q3 8 3.5 26t-1.5 27q-23 0 -40 13q-13 11 -19 22 q-5 9 -8 25q-3 21 -3 32z" />
<glyph unicode="-" d="M188 454v181h544v-181h-544z" />
<glyph unicode="." horiz-adv-x="532" d="M176 91q0 38 26 64t64 26t64 -26q27 -27 27 -64q0 -6 -2 -18q-6 -31 -31 -52q-26 -21 -58 -21q-37 0 -64 27q-26 26 -26 64z" />
<glyph unicode="/" d="M119 18l491 1405q2 9 15 9h163h5q14 -4 10 -19l-494 -1405q-2 -8 -12 -8h-164h-4q-14 4 -10 18z" />
<glyph unicode="0" d="M102 358v717q0 68 28 136q27 66 78 117q49 49 117 77q66 27 136 27t136 -27q68 -28 117 -77q51 -51 78 -117t27 -136v-717q0 -71 -27 -137q-26 -64 -78 -116q-49 -49 -117 -77t-136 -28t-136 28t-117 77q-52 52 -78 116q-28 68 -28 137zM281 358q0 -76 53 -127 q51 -51 127 -51q75 0 127 51q51 51 51 127v717q0 74 -52 126t-126 52q-75 0 -127 -52q-53 -53 -53 -126v-717z" />
<glyph unicode="1" d="M303 1030v160q0 8 8 10q71 24 120 88q47 62 52 139q0 11 11 11h157q13 0 13 -11v-1417q0 -10 -13 -10h-157q-11 0 -11 10v1063q0 6 -6 9t-10 -1q-68 -44 -152 -61q-3 0 -8 3q-4 3 -4 7z" />
<glyph unicode="2" d="M104 10v166l2 6l506 797q28 40 29 88q2 51 -20 91q-23 42 -65 68q-42 25 -89 27q-49 2 -90 -21q-44 -24 -68 -65q-23 -40 -25 -90q-2 -49 21 -90q6 -8 -2 -14l-133 -86q-10 -4 -16 4q-48 84 -49 181q-1 96 48 181q47 81 134 131t181 49t180 -54q85 -52 130 -135t41 -182 q-5 -100 -55 -179l-436 -688q-4 -4 -1 -11q3 -6 9 -6h473q10 0 10 -10v-158q0 -10 -10 -10h-694q-11 0 -11 10z" />
<glyph unicode="3" d="M104 1266v157q0 11 11 11h694q12 0 12 -11v-166l-2 -6l-239 -366q-2 -5 0 -9q2 -7 6 -8q104 -41 169 -139q66 -99 66 -209v-143q0 -132 -81 -234t-208 -132q-125 -30 -245 25q-117 53 -178 169q-4 10 6 16l141 68q10 4 14 -6q30 -57 95 -85q66 -28 127 -12q62 16 106 71 q43 53 43 120v143q0 82 -57 139q-58 58 -140 58h-73q-13 0 -13 10v143q0 5 2 7l236 360q4 6 0 12q-5 6 -8 6h-473q-11 0 -11 11z" />
<glyph unicode="4" d="M102 297v168v2l248 958q2 9 10 9h164q2 0 8 -6q4 -4 3 -9l-244 -940q-2 -5 2 -9q5 -5 8 -5h150q10 0 10 12v230q0 10 10 10h158q10 0 10 -10v-230q0 -12 10 -12h158q12 0 12 -10v-158q0 -10 -12 -10h-158q-10 0 -10 -11v-266q0 -10 -10 -10h-158q-10 0 -10 10v266 q0 11 -10 11h-338q-11 0 -11 10z" />
<glyph unicode="5" d="M102 621v800q0 11 13 11h694q10 0 10 -11v-157q0 -11 -10 -11h-516q-10 0 -10 -10v-305q0 -6 5 -9q4 -3 9 -1q83 41 177 38q93 -3 174 -52q78 -47 125 -131q46 -82 46 -175v-250q0 -72 -26 -136q-28 -68 -76 -116q-49 -49 -115 -76q-70 -29 -135 -30q-71 -2 -136 25 q-70 29 -117 74q-51 49 -79 113q-30 67 -31 134q-2 12 11 12h157q11 0 11 -10q5 -74 57 -123q51 -49 126 -47q73 2 124 54t51 126v250q0 74 -51 126t-124 54q-75 2 -126 -47q-52 -49 -57 -123q0 -10 -11 -10h-157q-13 0 -13 13z" />
<glyph unicode="6" d="M100 358v717q0 67 28 135q27 65 76 116q51 53 113 78q67 28 136 29q67 1 136 -25q68 -26 117 -74t79 -113q31 -67 32 -136q0 -10 -10 -10h-158q-11 0 -12 10q-4 71 -57 121q-51 49 -126 47q-74 -2 -123 -54q-50 -53 -50 -124v-209q0 -6 5 -9q4 -3 9 -1q83 41 177 38 q95 -3 173 -51t125 -131t47 -175v-179q0 -70 -27 -136t-78 -117q-49 -49 -117 -77t-136 -28t-136 28t-117 77q-51 51 -78 117q-28 68 -28 136zM281 358q0 -75 52 -127q53 -53 126 -53t126 53q52 52 52 127v179q0 76 -52 128t-126 52t-126 -52t-52 -128v-179z" />
<glyph unicode="7" d="M102 1085v336q0 13 11 13h694q12 0 12 -13v-166q0 -2 -2 -4l-328 -1243q-5 -8 -12 -8h-182q-4 0 -8 4t-2 10l323 1227q1 4 -1 8q-3 4 -9 4h-307q-10 0 -10 -10v-158q0 -10 -11 -10h-157q-11 0 -11 10z" />
<glyph unicode="8" d="M104 358v91q0 72 30 141t83 119q8 8 0 16q-54 51 -83 118q-30 69 -30 142v90q0 68 28 136q27 66 78 117q49 49 117 77q66 27 136 27t136 -27q68 -28 117 -77q51 -51 78 -117t27 -136v-90q0 -75 -29 -142t-83 -118q-8 -8 0 -16q53 -52 83 -120q29 -67 29 -140v-91 q0 -70 -27 -137q-26 -65 -78 -117q-48 -48 -117 -76q-68 -28 -136 -28t-136 28q-69 28 -117 76q-52 52 -78 117q-28 70 -28 137zM285 358q0 -75 52 -127q53 -53 126 -53t126 53q52 52 52 127v88q0 76 -52 128q-53 53 -126 53t-126 -53q-52 -52 -52 -128v-88zM285 985 q0 -75 52 -127q53 -53 126 -53t126 53q52 52 52 127v88q0 76 -52 128t-126 52t-126 -52t-52 -128v-88z" />
<glyph unicode="9" d="M102 895v180q0 68 28 136q27 66 78 117q49 49 117 77q66 27 137 27t137 -27t116 -77q49 -49 77 -117q27 -66 27 -136v-717q0 -72 -26 -136q-28 -68 -76 -116q-49 -49 -115 -76q-70 -29 -135 -30q-71 -2 -136 25q-70 29 -117 74q-51 49 -79 113q-30 67 -31 134 q-2 12 11 12h157q11 0 11 -10q5 -74 57 -123q51 -49 126 -47q73 2 124 54t51 126v209q0 7 -6 10q-5 3 -10 1q-83 -44 -178 -39t-173 51q-76 46 -124 130q-48 85 -48 175zM283 895q0 -74 52 -126t126 -52q75 0 127 52q53 53 53 126v180q0 74 -52 126t-127 52t-127 -52 t-52 -126v-180z" />
<glyph unicode=":" horiz-adv-x="532" d="M176 137q0 38 26 64q27 27 64 27t64 -27t27 -64t-27 -64t-64 -27t-64 27q-26 26 -26 64zM176 772q0 38 26 64q27 27 64 27t64 -27t27 -64t-27 -64t-64 -27t-64 27q-26 26 -26 64z" />
<glyph unicode=";" horiz-adv-x="532" d="M176 90q0 38 26 64t64 26t64 -26q27 -27 27 -65q0 -9 -4 -25l-63 -209h-59l17 147q-23 0 -50 28q-22 24 -22 60zM176 725q0 38 26 64q27 27 64 27t64 -27t27 -64t-27 -64t-64 -27t-64 27q-26 26 -26 64z" />
<glyph unicode="&#x3c;" d="M246 343v184q0 4 4 8l414 328q4 4 9 1t5 -9v-158q0 -5 -4 -6l-316 -256l316 -260q4 -1 4 -6v-158q0 -6 -5 -9t-9 1l-414 334q-4 1 -4 6z" />
<glyph unicode="=" d="M139 227v152q0 14 15 14h614q14 0 14 -14v-152q0 -14 -14 -14h-614q-15 0 -15 14zM139 563v152q0 14 15 14h614q14 0 14 -14v-152q0 -14 -14 -14h-614q-15 0 -15 14z" />
<glyph unicode="&#x3e;" d="M246 12v158q0 5 4 6l315 256l-315 260q-4 1 -4 6v158q0 6 5 9t9 -1l414 -334q4 -1 4 -6v-184q0 -4 -4 -8l-414 -328q-4 -4 -9 -1t-5 9z" />
<glyph unicode="?" d="M99 1089q0 150 106 256t256 106q151 0 257 -106t106 -256q0 -151 -106 -257l-128 -128q-54 -54 -54 -128v-304h-181v304q0 149 107 256l128 129q53 53 53 128t-53 128t-128 53h-1q-75 0 -128 -53t-53 -128h-181zM356 91q0 38 26 64q27 27 64 27t64 -27t27 -64 q0 -6 -2 -18q-6 -31 -31 -52q-26 -21 -58 -21q-37 0 -64 27q-26 26 -26 64z" />
<glyph unicode="@" horiz-adv-x="1464" d="M98 272v454q0 263 186 449t449 186t449 -186t186 -449v-454q0 -112 -80 -192t-193 -80q-103 0 -181 69q-78 -69 -181 -69q-113 0 -193 80q-79 79 -79 192v454q0 113 79 192q80 80 193 80q44 0 90 -16v17h182v-727v-3q1 -36 28 -63q25 -25 62 -25q38 0 65 27q26 26 26 64 v454q0 188 -132 320q-133 133 -321 133t-321 -133t-133 -320v-454h-181zM98 272h181q0 -188 133 -321t321 -133l453 1v-182h-453q-263 0 -449 186t-186 449zM642 272q0 -37 27 -64t64 -27t62 25q27 27 28 62v2v2v454q0 38 -26 64t-64 26t-64 -26q-27 -27 -27 -64v-454z" />
<glyph unicode="A" d="M104 4l267 1411q0 8 10 8h160q10 0 12 -8l264 -1411v-2q0 -10 -10 -10h-158q-10 0 -10 8l-47 252q-2 8 -10 8h-240q-10 0 -12 -8l-47 -252q0 -8 -11 -8h-157q-12 2 -11 12zM369 453q-2 -14 8 -15h2h164q10 0 10 13v2l-82 438q-1 8 -9 8h-3q-6 -2 -8 -8z" />
<glyph unicode="B" d="M102 10v1411q0 11 11 11h303q81 0 159 -35q76 -34 132 -101q86 -105 86 -235q0 -20 -2 -40q-15 -155 -136 -255q77 -59 121 -149q43 -87 43 -187q0 -178 -126 -304t-304 -126h-276q-11 0 -11 10zM283 190q0 -12 10 -12h96q105 0 177 74q73 75 73 178q0 104 -73 177 t-177 73h-96q-10 0 -10 -10v-480zM283 870q0 -10 10 -10h123q82 0 139 57t57 140q0 82 -57 139t-139 57h-123q-10 0 -10 -10v-373z" />
<glyph unicode="C" d="M102 360v717q0 145 102 249q103 104 247 110h14q139 0 242 -98q108 -102 112 -251q0 -10 -10 -10h-158q-11 0 -12 10q-5 74 -59 123q-51 45 -116 45h-13q-73 -5 -120 -55q-48 -51 -48 -123v-717q0 -74 52 -126t126 -52q72 0 123 48q50 48 55 120q1 10 12 10h158 q10 0 10 -10q-5 -146 -108 -247q-104 -101 -250 -101q-147 0 -253 106t-106 252z" />
<glyph unicode="D" d="M102 10v1411q0 11 11 11h348q148 0 253 -105t105 -252v-717q0 -149 -105 -254q-104 -104 -253 -104h-348q-11 0 -11 10zM283 190q0 -12 10 -12h168q73 0 126 53q52 52 52 127v717q0 74 -52 126t-126 52h-168q-10 0 -10 -10v-1053z" />
<glyph unicode="E" d="M102 10v1411q0 11 11 11h696q10 0 10 -11v-157q0 -11 -10 -11h-516q-10 0 -10 -10v-426q0 -12 10 -12h336q10 0 10 -10v-158q0 -10 -10 -10h-336q-10 0 -10 -11v-426q0 -12 10 -12h516q10 0 10 -10v-158q0 -10 -10 -10h-696q-11 0 -11 10z" />
<glyph unicode="F" d="M102 10v1411q0 11 11 11h696q10 0 10 -11v-157q0 -11 -10 -11h-516q-10 0 -10 -10v-426q0 -12 10 -12h336q10 0 10 -10v-158q0 -10 -10 -10h-336q-10 0 -10 -11v-606q0 -10 -13 -10h-157q-11 0 -11 10z" />
<glyph unicode="G" d="M102 360v715q0 145 102 250t247 109h14q138 0 242 -98q107 -102 112 -249q0 -12 -10 -12h-158q-11 0 -12 10q-5 76 -59 124q-53 46 -118 46h-11q-73 -5 -120 -56q-48 -53 -48 -124v-715q0 -76 52 -128t126 -52t126 52t52 128v203q0 12 -10 12h-158q-10 0 -10 11v157 q0 11 10 11h338q10 0 10 -11v-731q0 -10 -10 -10h-158q-12 0 -12 10v19q0 12 -10 12q-2 0 -4 -2q-78 -39 -164 -39q-149 0 -253 104q-106 106 -106 254z" />
<glyph unicode="H" d="M102 10q0 -10 11 -10h157q13 0 13 10v606q0 11 10 11h336q10 0 10 -11v-606q0 -10 12 -10h158q10 0 10 10v1411q0 11 -10 11h-158q-12 0 -12 -11v-604q0 -12 -10 -12h-336q-10 0 -10 12v604q0 11 -13 11h-157q-11 0 -11 -11v-1411z" />
<glyph unicode="I" horiz-adv-x="534" d="M178 10v1411q0 11 10 11h158q10 0 10 -11v-1411q0 -10 -10 -10h-158q-10 0 -10 10z" />
<glyph unicode="J" d="M102 346q0 12 11 12h157q12 0 13 -10q5 -76 59 -124q53 -46 118 -46h11q73 5 120 56q48 53 48 124v1063q0 11 12 11h158q10 0 10 -11v-1063q0 -145 -101 -249q-102 -105 -247 -109h-14q-139 0 -242 97q-109 102 -113 249z" />
<glyph unicode="K" d="M106 10v1411q0 11 11 11h157q11 0 11 -11v-487q0 -10 12 -10q7 0 8 4l305 499q2 5 8 5h185h6q6 -4 6 -9q0 -3 -2 -8l-424 -694q-1 -4 0 -10l424 -695q2 -2 2 -6q0 -10 -12 -10h-185q-6 0 -8 6l-305 498q-6 10 -14 4q-6 -2 -6 -8v-490l-11 -10h-157q-11 0 -11 10z" />
<glyph unicode="L" d="M102 10v1411q0 11 11 11h157q13 0 13 -11v-1231q0 -12 10 -12h516q10 0 10 -10v-158q0 -10 -10 -10h-696q-11 0 -11 10z" />
<glyph unicode="M" d="M102 10v1411q0 11 11 11h161q9 0 11 -7l166 -485q4 -10 14 -6q5 0 6 6l166 485q2 7 10 7h162q10 0 10 -11v-1411q0 -10 -10 -10h-158q-12 0 -12 10v805q0 12 -10 12q-9 0 -11 -8l-147 -432q-1 -5 -6 -6q-10 -4 -14 6l-148 432q-4 10 -14 6q-6 -1 -6 -10v-805 q0 -10 -13 -10h-157q-11 0 -11 10z" />
<glyph unicode="N" d="M102 10v1411q0 11 11 11h161q9 0 11 -7l333 -872q4 -11 15 -6q6 5 6 10v864q0 11 12 11h158q10 0 10 -11v-1411q0 -10 -10 -10h-162q-9 0 -10 6l-334 873q-4 10 -14 6q-6 -1 -6 -11v-864q0 -10 -13 -10h-157q-11 0 -11 10z" />
<glyph unicode="O" d="M102 358v717q0 146 106 252q105 105 253 105t253 -105t105 -252v-717q0 -149 -105 -254q-104 -104 -253 -104t-253 104q-106 106 -106 254zM283 358q0 -75 52 -127q53 -53 126 -53t126 53q52 52 52 127v717q0 74 -52 126t-126 52t-126 -52t-52 -126v-717z" />
<glyph unicode="P" d="M102 10v1411q0 11 11 11h276q177 0 304 -125q126 -125 126 -303q0 -179 -126 -305t-304 -126h-96q-10 0 -10 -10v-553q0 -10 -13 -10h-157q-11 0 -11 10zM283 762q0 -10 10 -10h96q105 0 178 73q74 74 74 177q0 104 -74 178q-73 73 -178 73h-96q-10 0 -10 -10v-481z" />
<glyph unicode="Q" d="M102 358v717q0 147 105 252t252 105h6q146 0 249 -103q105 -105 105 -254v-715q0 -101 -53 -190q-2 -6 -2 -8l51 -148v-4q0 -10 -10 -10h-168q-5 0 -10 8l-4 17q-5 11 -15 6h-2q-71 -31 -145 -31q-149 0 -253 104q-106 106 -106 254zM283 358q0 -75 52 -127 q53 -53 126 -53t126 53q52 52 52 127v717q0 74 -52 126t-126 52t-126 -52t-52 -126v-717z" />
<glyph unicode="R" d="M102 10v1411q0 11 11 11h276q111 0 210 -55q97 -54 157 -150q59 -97 62 -213v-12q0 -107 -50 -203q-52 -100 -154 -162q-8 -7 -4 -12l203 -611q2 -2 2 -4q0 -10 -12 -10h-166q-5 0 -10 6l-187 561q-2 7 -12 6q-24 -2 -39 -2h-96q-12 0 -12 -10v-551l-11 -10h-157 q-11 0 -11 10zM283 762q0 -10 10 -10h96q105 0 178 72q74 72 74 177q0 106 -74 178q-73 72 -178 72h-96q-10 0 -10 -10v-479z" />
<glyph unicode="S" d="M102 348q4 -148 113 -251q103 -97 243 -97h14q147 4 250 113q97 103 97 242v14q-1 71 -34 141q-31 68 -87 117l-356 313q-55 49 -59 125v13q0 65 45 116q49 54 123 59h13q65 0 116 -45q55 -49 59 -125q2 -8 12 -8h158q10 0 10 10q-5 149 -112 250q-105 98 -246 98h-11 q-147 -4 -250 -113q-98 -104 -98 -246v-11q1 -71 34 -141q32 -68 87 -117l357 -313q54 -49 59 -123v-13q0 -65 -45 -116q-50 -57 -123 -61h-13q-65 0 -116 45q-54 48 -59 124q-1 10 -13 10h-157q-11 0 -11 -10z" />
<glyph unicode="T" d="M102 1264q0 -11 11 -11h247q11 0 11 -10v-1233q0 -10 12 -10h156q12 0 12 10v1233q0 10 10 10h248q10 0 10 11v157q0 11 -10 11h-696q-11 0 -11 -11v-157z" />
<glyph unicode="U" d="M102 358v1063q0 11 11 11h157q13 0 13 -11v-1063q0 -75 52 -127q53 -53 126 -53t126 53q52 52 52 127v1063q0 11 12 11h158q10 0 10 -11v-1063q0 -149 -105 -254q-104 -104 -253 -104t-253 104q-106 106 -106 254z" />
<glyph unicode="V" d="M104 1419v2q0 11 11 11h157q9 0 11 -9l178 -888q2 -12 12 -11q6 2 8 11l158 888q0 9 10 9h158q12 -1 10 -13l-250 -1411q0 -8 -10 -8h-162q-8 0 -10 8z" />
<glyph unicode="W" d="M102 1421l91 -1411q0 -10 10 -10h159q9 0 11 8l78 271q1 6 8 6q11 5 12 -6l78 -271q2 -8 10 -8h160q10 0 10 10l90 1411q0 11 -10 11h-160q-10 0 -10 -9l-51 -823q0 -8 -8 -10q-12 -2 -13 8l-96 334q-1 10 -12 8q-6 -2 -8 -8l-97 -334q-2 -8 -8 -8q-12 0 -12 10l-51 823 q0 9 -11 9h-157q-13 0 -13 -11z" />
<glyph unicode="X" d="M106 14l209 699v6l-209 700v2q0 11 11 11h164q7 0 12 -7l158 -532q2 -11 14 -6q5 1 6 6l158 532q5 7 12 7h164h2q10 -1 8 -13l-209 -700q-2 -1 0 -6l209 -699v-4q0 -10 -10 -10h-164q-7 0 -12 8l-158 531q-1 11 -12 6q-7 0 -8 -6l-158 -531q-5 -8 -12 -8h-164h-2 q-10 4 -9 14zM315 713q0 2 0.5 3.5t-0.5 2.5v-6z" />
<glyph unicode="Y" d="M106 1419v2q0 11 11 11h164q8 0 10 -7l131 -497q4 -9 14 -8q6 2 6 8l185 497q2 7 10 7h168h2q10 -4 8 -15l-518 -1411l-10 -6h-168h-4q-10 4 -6 14l215 586v6z" />
<glyph unicode="Z" d="M102 10v166l2 6l508 1057q4 7 -4 14h-6h-489q-11 0 -11 11v157q0 11 11 11h696q10 0 10 -11v-166q0 -2 -2 -4l-508 -1056q-4 -10 4 -15q2 -2 6 -2h490q10 0 10 -10v-158q0 -10 -10 -10h-696q-11 0 -11 10z" />
<glyph unicode="[" d="M260 14v1405q0 15 14 15h373q15 0 15 -15v-159q0 -15 -15 -15h-188q-15 0 -15 -14v-1026q0 -15 15 -15h188q15 0 15 -14v-162q0 -14 -15 -14h-373q-14 0 -14 14z" />
<glyph unicode="\" d="M129 1413l492 -1405q2 -8 14 -8h164h4q14 4 10 18l-494 1405q-2 9 -12 9h-164h-4q-14 -4 -10 -19z" />
<glyph unicode="]" d="M260 14q0 -14 14 -14h373q15 0 15 14v1405q0 15 -15 15h-373q-14 0 -14 -15v-159q0 -15 14 -15h189q14 0 14 -14v-1026q0 -15 -14 -15h-189q-14 0 -14 -14v-162z" />
<glyph unicode="^" d="M174 1494q-2 4 0 9l184 230q6 2 9 2h184q4 0 6 -2l182 -230q1 -5 0 -9q-2 -5 -8 -5h-158q-2 0 -8 2l-106 133l-111 -133q-6 -2 -8 -2h-158q-6 0 -8 5z" />
<glyph unicode="_" d="M0 0h922v-119h-922v119z" />
<glyph unicode="`" d="M280 1638h181l181 -272h-136z" />
<glyph unicode="a" horiz-adv-x="1007" d="M96 317q0 132 93 225t224 93h136q38 0 64 26q27 27 27 64v46q0 56 -40 96t-96 40h-46q-56 0 -96 -40t-40 -96v-45h-181v45q0 129 90 222t219 96h54q130 0 224 -94q93 -93 93 -224v-46v-2v-451q0 -37 27 -64q26 -26 64 -26v-182q-116 0 -195 82q-89 -82 -213 -82h-91 q-131 0 -224 93t-93 224zM277 317q0 -56 40 -96q39 -39 96 -39h91q57 0 96 39q40 40 40 96v152q-46 -16 -91 -16h-136q-56 0 -96 -40t-40 -96z" />
<glyph unicode="b" d="M98 0v363v363v725h182v-411q86 49 181 49q150 0 257 -107q106 -106 106 -256v-362q0 -152 -106 -258t-257 -106q-95 0 -181 49v-49h-182zM280 363q0 -75 53 -128t128 -53t128 53t53 128v363q0 75 -53 128t-128 53t-128 -53t-53 -128v-363z" />
<glyph unicode="c" d="M98 362v363q0 151 106 257q105 105 256 105q150 0 257 -105q106 -105 106 -257h-182q0 77 -52 129q-53 53 -128 53q-76 0 -129 -53t-53 -129v-363q0 -75 53 -128q52 -52 129 -52q74 0 128 54q52 52 52 126v3h182v-3q0 -150 -106 -256t-257 -106t-256 106 q-106 108 -106 256z" />
<glyph unicode="d" d="M98 364v362q0 150 106 256q107 107 257 107q95 0 181 -49v411h181v-1451h-181v49q-86 -49 -181 -49q-151 0 -257 106t-106 258zM279 363q0 -75 53 -128t129 -53q75 0 128 53t53 128v363q0 75 -53 128t-128 53q-76 0 -129 -53t-53 -128v-363z" />
<glyph unicode="e" d="M98 363v362q0 151 106 257q107 107 256 107q150 0 257 -107q106 -106 106 -256v-91v-181h-544v-91q0 -75 53 -128t128 -53q61 0 108 35t65 91l165 -78q-41 -103 -132 -166q-93 -64 -206 -64q-150 0 -256 106t-106 257zM279 635h363v91q0 75 -53 128t-129 53 q-75 0 -128 -53t-53 -128v-91z" />
<glyph unicode="f" d="M98 726v181h181v272q0 113 80 193q79 79 192 79t192 -79q80 -80 80 -193h-57h-124q0 37 -27 64t-64 27t-64 -27t-27 -64v-272h272v-181h-272v-726h-181v726h-181z" />
<glyph unicode="g" d="M97 -91q0 148 127 230q-35 62 -35 133q0 92 54 164q-144 108 -144 290q0 151 105 256q107 107 256 107h363v-182h-48q49 -86 49 -180l-183 -1q0 75 -53 128t-128 53t-128 -53t-53 -128q0 -76 53 -129t128 -53q76 0 128 54q53 55 53 128l183 1q0 -151 -106 -257 q-107 -107 -257 -107q-38 0 -65 -27t-27 -64t27 -64q26 -26 64 -26h91q112 0 192 -80t80 -192h-182q0 38 -26 64t-64 26h-182q-37 0 -64 -27q-26 -26 -26 -64t26 -64t64 -26h182q38 0 64 26t26 65h182q0 -113 -80 -193t-192 -80h-182q-112 0 -192 80t-80 192z" />
<glyph unicode="h" d="M98 0v1451h181v-411q86 49 182 49q149 0 256 -107q106 -106 106 -256v-726h-181v726q0 75 -53 128t-128 53q-76 0 -129 -53t-53 -128v-726h-181z" />
<glyph unicode="i" horiz-adv-x="534" d="M131 272v817h182v-817q0 -38 26 -64t64 -26v-182q-112 0 -192 80t-80 192zM131 1361q0 37 27 64q26 26 64 26t64 -26q27 -27 27 -64t-27 -64t-64 -27t-64 27t-27 64z" />
<glyph unicode="j" d="M190 -91h181q0 -37 27 -64q26 -26 64 -26t64 26q27 27 27 64l-1 1180h181l1 -1179q0 -113 -80 -193t-192 -80q-113 0 -193 80q-79 79 -79 192zM552 1361q0 38 26 64t64 26t64 -26q27 -27 27 -64h-91h91q0 -37 -27 -64t-64 -27t-64 27q-26 26 -26 64z" />
<glyph unicode="k" d="M98 0v1451h182v-942l334 580h210l-314 -545l314 -544h-210l-209 363l-125 -217v-146h-182z" />
<glyph unicode="l" horiz-adv-x="557" d="M98 272v1179h181v-1179q0 -37 27 -64q26 -26 64 -26h90v-182h-90q-113 0 -193 80q-79 79 -79 192z" />
<glyph unicode="m" horiz-adv-x="1462" d="M96 0v726v363h182v-49q86 49 181 49q164 0 272 -123q108 123 272 123q150 0 257 -107q106 -106 106 -256v-726h-181v412v314q0 74 -54 128q-53 53 -128 53t-128 -53t-53 -128v-726h-181v412v314q0 74 -54 128q-53 53 -128 53t-128 -53t-53 -128v-314v-412h-182z" />
<glyph unicode="n" d="M98 0v726v363h181v-49q86 49 182 49q149 0 256 -107q106 -106 106 -256v-726h-181v412v314q0 75 -53 128t-128 53q-76 0 -129 -53t-53 -128v-314v-412h-181z" />
<glyph unicode="o" d="M98 363v362q0 151 106 257q107 107 256 107q150 0 257 -107q106 -106 106 -256v-363q0 -151 -106 -257t-257 -106q-150 0 -256 106t-106 257zM279 363q0 -75 53 -128t128 -53q76 0 129 53t53 128v2v361q0 75 -53 128t-129 53q-75 0 -128 -53t-53 -128v-363z" />
<glyph unicode="p" d="M98 -363v726v363v363h181v-49q86 49 181 49q150 0 257 -107q106 -106 106 -257v-362q0 -151 -106 -257t-257 -106q-95 0 -181 49v-412h-181zM279 363q0 -76 53 -129t128 -53q76 0 129 53t53 129v363q0 75 -53 128t-129 53q-75 0 -128 -53t-53 -128v-363z" />
<glyph unicode="q" d="M98 363v362q0 151 106 257q107 107 257 107q95 0 181 -49v49h181v-363v-363v-726h-181v412q-86 -49 -181 -49q-151 0 -257 106t-106 257zM279 363q0 -76 53 -129t129 -53q75 0 128 53t53 129v363q0 75 -53 128t-128 53q-76 0 -129 -53t-53 -128v-363z" />
<glyph unicode="r" horiz-adv-x="735" d="M94 0v726v363h182v-49q86 49 181 49h181v-272h-181v90q-75 0 -128 -53t-53 -128v-314v-412h-182z" />
<glyph unicode="s" horiz-adv-x="827" d="M98 317v46h180v-45q0 -57 40 -97t96 -40t96 40t40 96v1q0 56 -40 96t-96 40q-131 0 -224 93q-92 92 -92 223t93 224t223 93h1q130 0 223 -93t93 -224v-45h-181v45q0 57 -39 96q-40 40 -96 40q-58 0 -97 -39q-40 -40 -40 -97q0 -56 40 -96t96 -40q131 0 224 -93t93 -223 v-1q0 -130 -93 -223t-224 -93t-224 93q-92 92 -92 223z" />
<glyph unicode="t" horiz-adv-x="557" d="M52 907v182h91v362h182v-362h181v-182h-181v-635q0 -38 26 -64t64 -26h91v-182h-91q-112 0 -192 80t-80 192v635h-91z" />
<glyph unicode="u" d="M98 363v726h181v-412v-314q0 -75 53 -128t129 -53q75 0 128 53t53 128v314v412h181v-726v-363h-181v49q-86 -49 -181 -49q-151 0 -257 106t-106 257z" />
<glyph unicode="v" d="M98 1089h182l181 -907l182 907h181l-218 -1089h-145h-145z" />
<glyph unicode="w" horiz-adv-x="1458" d="M94 1089h182l181 -907l181 907h182l181 -907l182 907h181l-218 -1089h-145h-145l-127 635l-127 -635h-145h-145z" />
<glyph unicode="x" d="M98 0l272 544l-272 545h181l182 -363l181 363h181l-272 -545l272 -544h-181l-181 363l-182 -363h-181z" />
<glyph unicode="y" d="M98 -256l132 132q18 -47 67 -56q9 -2 18 -2q26 0 50 16q30 20 38 58l4 17l-237 1180h181l145 -721l139 721h188l-246 -1231q-19 -98 -93 -159q-74 -62 -170 -62q-24 0 -52 5q-101 19 -164 102z" />
<glyph unicode="z" d="M98 0v181l499 726h-499v182h725v-182l-498 -726h498v-181h-725z" />
<glyph unicode="{" d="M215 578q0 -9 8 -9q65 -5 110 -53q46 -49 46 -113v-245q0 -136 93 -231t226 -99q11 0 11 10v144q0 10 -11 10q-61 4 -107 53t-46 113v245q0 103 -73 176q-72 72 -175 72q102 0 175 73t73 175v246q0 63 46 112q47 50 107 54q11 0 11 10v143q0 11 -11 11q-132 -4 -226 -100 q-93 -95 -93 -230v-246q0 -64 -46 -113q-45 -48 -110 -53q-8 0 -8 -8v-147z" />
<glyph unicode="|" d="M373 -180v1784q0 10 12 10h154q12 0 12 -10v-1784q0 -13 -12 -13h-154q-12 0 -12 13z" />
<glyph unicode="}" d="M213 -18q0 10 10 10q63 5 108 53q46 49 46 113v245q0 103 73 176q72 72 175 72q-102 0 -175 73t-73 175v246q0 63 -46 112q-47 49 -108 54q-10 0 -10 10v143q0 11 10 11q133 -4 227 -100q93 -95 93 -230v-246q0 -64 46 -113q46 -48 109 -53q9 0 9 -8v-147q0 -9 -9 -9 q-63 -5 -109 -53q-46 -49 -46 -113v-245q0 -136 -93 -231q-93 -94 -227 -99q-10 0 -10 10v144z" />
<glyph unicode="~" d="M65 632l175 46q9 -35 42 -55q32 -19 69 -10l141 37l35 10q108 28 206 -29t126 -165l-176 -47q-9 37 -42 56q-31 18 -68 9l-141 -37l-35 -9q-109 -28 -206 28q-98 57 -126 166z" />
<glyph />
<glyph />
<glyph />
<glyph />
<glyph />
<glyph />
<glyph unicode="&#x85;" />
<glyph />
<glyph />
<glyph />
<glyph />
<glyph />
<glyph />
<glyph />
<glyph />
<glyph />
<glyph />
<glyph />
<glyph />
<glyph />
<glyph />
<glyph />
<glyph />
<glyph />
<glyph />
<glyph />
<glyph />
<glyph />
<glyph />
<glyph />
<glyph />
<glyph />
<glyph />
<glyph unicode="&#xa0;" />
<glyph unicode="&#xa1;" />
<glyph unicode="&#xa2;" />
<glyph unicode="&#xa3;" d="M98 0v182q38 0 64 26q27 27 27 64v363h-91v181h90v318q0 131 93 224t225 93q131 0 224 -93t93 -224h-181q0 56 -40 96t-96 40t-96 -40t-40 -96v-318h227v-181h-227v-363q0 -44 -16 -90h469v-182h-725z" />
<glyph unicode="&#xa4;" />
<glyph unicode="&#xa5;" />
<glyph unicode="&#xa6;" />
<glyph unicode="&#xa7;" horiz-adv-x="1662" d="M98 0v363l419 725h210l-91 -157l219 -379l5 -8l314 544h209l-90 -157l219 -379q53 -88 53 -189q0 -150 -107 -257q-106 -106 -256 -106q-106 0 -195 57q-88 57 -133 150l-12 -22q-48 -85 -133 -135t-184 -50q-107 0 -195 57q-86 56 -132 150zM364 363q0 -75 53 -128 q54 -54 128 -54q75 0 129 54q53 53 53 128q0 47 -25 91l-171 296l-167 -290v-97zM1021 363q0 -75 53 -128q54 -54 128 -54t128 54q53 53 53 128q0 49 -24 91l-171 296l-167 -290v-97z" />
<glyph unicode="&#xa8;" />
<glyph unicode="&#xa9;" horiz-adv-x="1466" d="M98 635v178q0 263 186 449t449 186t449 -186t186 -449v-178q0 -263 -186 -449t-449 -186t-449 186t-186 449zM280 635q0 -189 132 -321q133 -133 321 -133t321 133t133 321v178q0 188 -133 321t-321 133t-321 -133q-132 -132 -132 -321v-178zM416 635h181q0 -56 40 -96 t96 -40t96 40t40 96v181q0 57 -40 97q-39 39 -96 39t-96 -39q-40 -40 -40 -97h-181q0 132 93 225t224 93q130 0 224 -94q93 -93 93 -224l1 -181q0 -129 -94 -223q-95 -95 -223 -95h-1q-131 0 -225 94q-92 92 -92 224z" />
<glyph unicode="&#xaa;" />
<glyph unicode="&#xab;" d="M111 344v184q0 4 4 8l334 265q4 4 9 1t5 -10v-157q0 -5 -4 -6l-236 -193l236 -195l4 -8v-157q0 -7 -5 -9q-4 -1 -9 0l-334 271q-4 1 -4 6zM459 344v184q0 4 4 8l334 265q4 4 9 1t5 -10v-157q0 -5 -4 -6l-236 -193l236 -195l4 -8v-157q0 -7 -5 -9q-4 -1 -9 0l-334 271 q-4 1 -4 6z" />
<glyph unicode="&#xac;" />
<glyph unicode="&#xad;" />
<glyph unicode="&#xae;" />
<glyph unicode="&#xaf;" />
<glyph unicode="&#xb0;" horiz-adv-x="532" d="M108 1480q0 64 45 111q44 45 109 47h4q66 0 112 -46q47 -47 47 -112t-47 -112t-112 -47t-112 47q-46 46 -46 112zM203 1480q0 -27 18 -45q19 -19 45 -19t45 19t19 45t-19 45q-18 18 -45 18t-45 -18t-18 -45z" />
<glyph unicode="&#xb1;" />
<glyph unicode="&#xb2;" />
<glyph unicode="&#xb3;" />
<glyph unicode="&#xb4;" />
<glyph unicode="&#xb5;" d="M98 -272v635v91v635h181v-412v-223v-91q0 -75 53 -128t129 -53q75 0 128 53t53 128v314v412h181v-726v-363h-181v49q-86 -49 -181 -49q-96 0 -182 49v-321h-181z" />
<glyph unicode="&#xb6;" />
<glyph unicode="&#xb7;" />
<glyph unicode="&#xb8;" />
<glyph unicode="&#xb9;" />
<glyph unicode="&#xba;" />
<glyph unicode="&#xbb;" d="M111 78v157q0 7 4 8l235 191l-235 197l-4 6v157q0 7 5 10t9 -1l334 -269q4 -4 4 -8v-184q0 -5 -4 -6l-334 -267q-5 -1 -9 0q-5 2 -5 9zM459 78v157q0 7 4 8l235 191l-235 197l-4 6v157q0 7 5 10t9 -1l334 -269q4 -4 4 -8v-184q0 -5 -4 -6l-334 -267q-5 -1 -9 0q-5 2 -5 9 z" />
<glyph unicode="&#xbc;" />
<glyph unicode="&#xbd;" />
<glyph unicode="&#xbe;" />
<glyph unicode="&#xbf;" />
<glyph unicode="&#xc0;" d="M104 12l267 1411q0 9 10 9h160q10 0 12 -9l264 -1411v-2q0 -10 -10 -10h-158q-10 0 -10 8l-47 252q-2 8 -10 8h-240q-10 0 -12 -8l-47 -252q0 -8 -11 -8h-157q-12 2 -11 12zM294 1737h181l182 -272h-137zM369 461q-2 -11 8 -12h2h164q10 0 10 10v2l-82 438q-1 10 -12 8 q-6 -2 -8 -8z" />
<glyph unicode="&#xc1;" d="M104 12l267 1411q0 9 10 9h160q10 0 12 -9l264 -1411v-2q0 -10 -10 -10h-158q-10 0 -10 8l-47 252q-2 8 -10 8h-240q-10 0 -12 -8l-47 -252q0 -8 -11 -8h-157q-12 2 -11 12zM297 1465l181 272h181l-226 -272h-136zM369 461q-2 -11 8 -12h2h164q10 0 10 10v2l-82 438 q-1 10 -12 8q-6 -2 -8 -8z" />
<glyph unicode="&#xc2;" d="M104 12l267 1411q0 9 10 9h160q10 0 12 -9l264 -1411v-2q0 -10 -10 -10h-158q-10 0 -10 8l-47 252q-2 8 -10 8h-240q-10 0 -12 -8l-47 -252q0 -8 -11 -8h-157q-12 2 -11 12zM188 1465l182 272h181l182 -272h-137l-136 163l-136 -163h-136zM369 461q-2 -11 8 -12h2h164 q10 0 10 10v2l-82 438q-1 10 -12 8q-6 -2 -8 -8z" />
<glyph unicode="&#xc3;" />
<glyph unicode="&#xc4;" d="M104 12l267 1411q0 9 10 9h160q10 0 12 -9l264 -1411v-2q0 -10 -10 -10h-158q-10 0 -10 8l-47 252q-2 8 -10 8h-240q-10 0 -12 -8l-47 -252q0 -8 -11 -8h-157q-12 2 -11 12zM204 1646q0 37 27 64t64 27t64 -27t27 -64q0 -6 -2 -18q-6 -31 -31 -52t-58 -21q-37 0 -64 27 t-27 64zM369 461q-2 -11 8 -12h2h164q10 0 10 10v2l-82 438q-1 10 -12 8q-6 -2 -8 -8zM548 1646q0 38 26 64q27 27 64 27t64 -27t27 -64q0 -6 -2 -18q-6 -31 -31 -52q-26 -21 -58 -21q-37 0 -64 27q-26 26 -26 64z" />
<glyph unicode="&#xc5;" d="M104 12l267 1411q0 9 10 9h160q10 0 12 -9l264 -1411v-2q0 -10 -10 -10h-158q-10 0 -10 8l-47 252q-2 8 -10 8h-240q-10 0 -12 -8l-47 -252q0 -8 -11 -8h-157q-12 2 -11 12zM279 1559q0 75 53 128t128 53q76 0 129 -53t53 -128q0 -76 -53 -129t-129 -53q-75 0 -128 53 t-53 129zM369 461q-2 -11 8 -12h2h164q10 0 10 10v2l-82 438q-1 10 -12 8q-6 -2 -8 -8zM415 1559q0 -19 13 -32t32 -13t32 13q14 14 14 32t-14 32q-13 13 -32 13t-32 -13t-13 -32z" />
<glyph unicode="&#xc6;" d="M-152 0l512 1432h713v-203h-409v-412h307v-203h-307v-411h409v-203h-610v305l-311 2l-103 -307h-201zM229 510h234v616h-29z" />
<glyph unicode="&#xc7;" />
<glyph unicode="&#xc8;" d="M102 10v1411q0 11 11 11h696q10 0 10 -11v-157q0 -11 -10 -11h-516q-10 0 -10 -10v-426q0 -12 10 -12h336q10 0 10 -10v-158q0 -10 -10 -10h-336q-10 0 -10 -11v-426q0 -12 10 -12h516q10 0 10 -10v-158q0 -10 -10 -10h-696q-11 0 -11 10zM294 1737h181l182 -272h-137z " />
<glyph unicode="&#xc9;" d="M102 10v1411q0 11 11 11h696q10 0 10 -11v-157q0 -11 -10 -11h-516q-10 0 -10 -10v-426q0 -12 10 -12h336q10 0 10 -10v-158q0 -10 -10 -10h-336q-10 0 -10 -11v-426q0 -12 10 -12h516q10 0 10 -10v-158q0 -10 -10 -10h-696q-11 0 -11 10zM297 1465l181 272h181 l-226 -272h-136z" />
<glyph unicode="&#xca;" d="M102 10v1411q0 11 11 11h696q10 0 10 -11v-157q0 -11 -10 -11h-516q-10 0 -10 -10v-426q0 -12 10 -12h336q10 0 10 -10v-158q0 -10 -10 -10h-336q-10 0 -10 -11v-426q0 -12 10 -12h516q10 0 10 -10v-158q0 -10 -10 -10h-696q-11 0 -11 10zM188 1465l182 272h181l182 -272 h-137l-136 163l-136 -163h-136z" />
<glyph unicode="&#xcb;" d="M102 10v1411q0 11 11 11h696q10 0 10 -11v-157q0 -11 -10 -11h-516q-10 0 -10 -10v-426q0 -12 10 -12h336q10 0 10 -10v-158q0 -10 -10 -10h-336q-10 0 -10 -11v-426q0 -12 10 -12h516q10 0 10 -10v-158q0 -10 -10 -10h-696q-11 0 -11 10zM202 1642q0 37 27 64t64 27 t64 -27t27 -64q0 -6 -2 -18q-6 -31 -31 -52q-24 -20 -58 -20q-38 0 -64 26q-27 27 -27 64zM546 1642q0 38 26 64q27 27 64 27t64 -27t27 -64q0 -6 -2 -18q-6 -31 -31 -52q-24 -20 -58 -20q-38 0 -64 26t-26 64z" />
<glyph unicode="&#xcc;" d="M294 1737h181l182 -272h-137zM369 10v1411q0 11 10 11h158q10 0 10 -11v-1411q0 -10 -10 -10h-158q-10 0 -10 10z" />
<glyph unicode="&#xcd;" d="M297 1465l181 272h181l-226 -272h-136zM369 10v1411q0 11 10 11h158q10 0 10 -11v-1411q0 -10 -10 -10h-158q-10 0 -10 10z" />
<glyph unicode="&#xce;" d="M188 1465l182 272h181l182 -272h-137l-136 163l-136 -163h-136zM369 10v1411q0 11 10 11h158q10 0 10 -11v-1411q0 -10 -10 -10h-158q-10 0 -10 10z" />
<glyph unicode="&#xcf;" d="M202 1646q0 37 27 64t64 27t64 -27t27 -64q0 -6 -2 -18q-6 -31 -31 -52q-26 -21 -58 -21q-37 0 -64 27t-27 64zM369 10v1411q0 11 10 11h158q10 0 10 -11v-1411q0 -10 -10 -10h-158q-10 0 -10 10zM546 1646q0 38 26 64q27 27 64 27t64 -27t27 -64q0 -6 -2 -18 q-6 -31 -31 -52q-26 -21 -58 -21q-37 0 -64 27q-26 26 -26 64z" />
<glyph unicode="&#xd0;" />
<glyph unicode="&#xd1;" />
<glyph unicode="&#xd2;" d="M102 358v717q0 146 106 252q105 105 253 105t253 -105t105 -252v-717q0 -149 -105 -254q-104 -104 -253 -104t-253 104q-106 106 -106 254zM283 358q0 -75 52 -127q53 -53 126 -53t126 53q52 52 52 127v717q0 74 -52 126t-126 52t-126 -52t-52 -126v-717zM294 1737h181 l182 -272h-137z" />
<glyph unicode="&#xd3;" d="M102 358v717q0 146 106 252q105 105 253 105t253 -105t105 -252v-717q0 -149 -105 -254q-104 -104 -253 -104t-253 104q-106 106 -106 254zM283 358q0 -75 52 -127q53 -53 126 -53t126 53q52 52 52 127v717q0 74 -52 126t-126 52t-126 -52t-52 -126v-717zM297 1465 l181 272h181l-226 -272h-136z" />
<glyph unicode="&#xd4;" d="M102 358v717q0 146 106 252q105 105 253 105t253 -105t105 -252v-717q0 -149 -105 -254q-104 -104 -253 -104t-253 104q-106 106 -106 254zM188 1465l182 272h181l182 -272h-137l-136 163l-136 -163h-136zM188 1465l182 272h181l182 -272h-137l-136 163l-136 -163h-136z M283 358q0 -75 52 -127q53 -53 126 -53t126 53q52 52 52 127v717q0 74 -52 126t-126 52t-126 -52t-52 -126v-717z" />
<glyph unicode="&#xd5;" d="M102 358v717q0 146 106 252q105 105 253 105t253 -105t105 -252v-717q0 -149 -105 -254q-104 -104 -253 -104t-253 104q-106 106 -106 254zM283 358q0 -75 52 -127q53 -53 126 -53t126 53q52 52 52 127v717q0 74 -52 126t-126 52t-126 -52t-52 -126v-717z" />
<glyph unicode="&#xd6;" d="M102 358v717q0 146 106 252q105 105 253 105t253 -105t105 -252v-717q0 -149 -105 -254q-104 -104 -253 -104t-253 104q-106 106 -106 254zM202 1646q0 37 27 64t64 27t64 -27t27 -64q0 -6 -2 -18q-6 -31 -31 -52q-26 -21 -58 -21q-37 0 -64 27t-27 64zM283 358 q0 -75 52 -127q53 -53 126 -53t126 53q52 52 52 127v717q0 74 -52 126t-126 52t-126 -52t-52 -126v-717zM546 1646q0 38 26 64q27 27 64 27t64 -27t27 -64q0 -6 -2 -18q-6 -31 -31 -52q-26 -21 -58 -21q-37 0 -64 27q-26 26 -26 64z" />
<glyph unicode="&#xd7;" />
<glyph unicode="&#xd8;" />
<glyph unicode="&#xd9;" d="M102 358v1063q0 11 11 11h157q13 0 13 -11v-1063q0 -75 52 -127q53 -53 126 -53t126 53q52 52 52 127v1063q0 11 12 11h158q10 0 10 -11v-1063q0 -149 -105 -254q-104 -104 -253 -104t-253 104q-106 106 -106 254zM294 1737h181l182 -272h-137z" />
<glyph unicode="&#xda;" d="M102 358v1063q0 11 11 11h157q13 0 13 -11v-1063q0 -75 52 -127q53 -53 126 -53t126 53q52 52 52 127v1063q0 11 12 11h158q10 0 10 -11v-1063q0 -149 -105 -254q-104 -104 -253 -104t-253 104q-106 106 -106 254zM297 1465l181 272h181l-226 -272h-136z" />
<glyph unicode="&#xdb;" d="M102 358v1063q0 11 11 11h157q13 0 13 -11v-1063q0 -75 52 -127q53 -53 126 -53t126 53q52 52 52 127v1063q0 11 12 11h158q10 0 10 -11v-1063q0 -149 -105 -254q-104 -104 -253 -104t-253 104q-106 106 -106 254zM188 1465l182 272h181l182 -272h-137l-136 163 l-136 -163h-136z" />
<glyph unicode="&#xdc;" d="M102 358v1063q0 11 11 11h157q13 0 13 -11v-1063q0 -75 52 -127q53 -53 126 -53t126 53q52 52 52 127v1063q0 11 12 11h158q10 0 10 -11v-1063q0 -149 -105 -254q-104 -104 -253 -104t-253 104q-106 106 -106 254zM202 1649q0 37 27 64t64 27t64 -27t27 -64q0 -6 -2 -18 q-6 -31 -31 -52q-26 -21 -58 -21q-37 0 -64 27t-27 64zM546 1649q0 38 26 64q27 27 64 27t64 -27t27 -64q0 -6 -2 -18q-6 -31 -31 -52q-26 -21 -58 -21q-37 0 -64 27q-26 26 -26 64z" />
<glyph unicode="&#xdd;" />
<glyph unicode="&#xde;" />
<glyph unicode="&#xdf;" d="M98 0v1133q0 132 93 225t225 93t225 -93t93 -225q0 -113 -70 -199q159 -108 159 -300v-271q0 -151 -106 -257t-256 -106h-91v182h91q75 0 128 53t53 128v271q0 75 -53 128t-128 53h-91v181h46q57 0 97 40t40 97t-40 97t-97 40q-56 0 -96 -40t-40 -97v-1133h-182z" />
<glyph unicode="&#xe0;" horiz-adv-x="1007" d="M96 317q0 132 93 225t224 93h136q38 0 64 26q27 27 27 64v46q0 56 -40 96t-96 40h-46q-56 0 -96 -40t-40 -96v-45h-181v45q0 129 90 222t219 96h54q130 0 224 -94q93 -93 93 -224v-46v-2v-451q0 -37 27 -64q26 -26 64 -26v-182q-116 0 -195 82q-89 -82 -213 -82h-91 q-131 0 -224 93t-93 224zM277 317q0 -56 40 -96q39 -39 96 -39h91q57 0 96 39q40 40 40 96v152q-46 -16 -91 -16h-136q-56 0 -96 -40t-40 -96zM279 1451h182l181 -272h-136z" />
<glyph unicode="&#xe1;" horiz-adv-x="1007" d="M96 317q0 132 93 225t224 93h136q38 0 64 26q27 27 27 64v46q0 56 -40 96t-96 40h-46q-56 0 -96 -40t-40 -96v-45h-181v45q0 129 90 222t219 96h54q130 0 224 -94q93 -93 93 -224v-46v-2v-451q0 -37 27 -64q26 -26 64 -26v-182q-116 0 -195 82q-89 -82 -213 -82h-91 q-131 0 -224 93t-93 224zM277 317q0 -56 40 -96q39 -39 96 -39h91q57 0 96 39q40 40 40 96v152q-46 -16 -91 -16h-136q-56 0 -96 -40t-40 -96zM349 1179h136l227 272h-181z" />
<glyph unicode="&#xe2;" horiz-adv-x="1007" d="M96 317q0 132 93 225t224 93h136q38 0 64 26q27 27 27 64v46q0 56 -40 96t-96 40h-46q-56 0 -96 -40t-40 -96v-45h-181v45q0 129 90 222t219 96h54q130 0 224 -94q93 -93 93 -224v-46v-2v-451q0 -37 27 -64q26 -26 64 -26v-182q-116 0 -195 82q-89 -82 -213 -82h-91 q-131 0 -224 93t-93 224zM233 1179l181 272h182l181 -272h-136l-136 164l-136 -164h-136zM277 317q0 -56 40 -96q39 -39 96 -39h91q57 0 96 39q40 40 40 96v152q-46 -16 -91 -16h-136q-56 0 -96 -40t-40 -96z" />
<glyph unicode="&#xe3;" />
<glyph unicode="&#xe4;" horiz-adv-x="1007" d="M96 317q0 132 93 225t224 93h136q38 0 64 26q27 27 27 64v46q0 56 -40 96t-96 40h-46q-56 0 -96 -40t-40 -96v-45h-181v45q0 129 90 222t219 96h54q130 0 224 -94q93 -93 93 -224v-46v-2v-451q0 -37 27 -64q26 -26 64 -26v-182q-116 0 -195 82q-89 -82 -213 -82h-91 q-131 0 -224 93t-93 224zM215 1307q0 38 26 64t64 26t64 -26q27 -27 27 -64q0 -6 -2 -18q-6 -31 -31 -52t-58 -21q-37 0 -64 27q-26 26 -26 64zM277 317q0 -56 40 -96q39 -39 96 -39h91q57 0 96 39q40 40 40 96v152q-46 -16 -91 -16h-136q-56 0 -96 -40t-40 -96zM558 1307 q0 38 26 64t65 26q38 0 64 -26t26 -64q0 -12 -1 -18q-6 -30 -32 -52q-26 -21 -57 -21q-38 0 -65 27q-26 26 -26 64z" />
<glyph unicode="&#xe5;" horiz-adv-x="987" d="M96 317q0 132 93 225t224 93h136q38 0 64 26q27 27 27 64v46q0 56 -40 96t-96 40h-46q-56 0 -96 -40t-40 -96v-45h-181v45q0 129 90 222t219 96h54q130 0 224 -94q93 -93 93 -224v-46v-2v-451q0 -37 27 -64q26 -26 64 -26v-182q-116 0 -195 82q-89 -82 -213 -82h-91 q-131 0 -224 93t-93 224zM277 317q0 -56 40 -96q39 -39 96 -39h91q57 0 96 39q40 40 40 96v152q-46 -16 -91 -16h-136q-56 0 -96 -40t-40 -96zM314 1350q0 75 53 128t129 53q75 0 128 -53t53 -128t-53 -128t-128 -53q-76 0 -129 53t-53 128zM450 1350q0 -18 14 -32 q13 -13 32 -13t32 13t13 32t-13 32q-14 14 -32 14t-32 -14t-14 -32z" />
<glyph unicode="&#xe6;" horiz-adv-x="1282" d="M98 272v91q0 113 79 192q80 80 192 80h137h44l1 91v45q0 56 -40 96t-96 40t-96 -40t-40 -96h-181q0 131 93 224t224 93q134 0 227 -95q93 96 226 96h1q130 0 224 -94q93 -93 93 -224v-136v-45v-136h-453v-91v-45q0 -58 39 -97t97 -39q57 0 96 39q40 40 40 97h181 q0 -132 -93 -225t-224 -93q-146 0 -240 109q-106 -109 -259 -109v182q74 0 126 51q54 52 55 125v5v91h-45h-76h-15h-46q-36 0 -63 -27t-27 -64v-91q0 -37 27 -64q26 -26 64 -26v-182q-113 0 -193 80q-79 79 -79 192zM732 726l1 -91h271v136q0 57 -39 96q-40 40 -96 40 q-57 0 -97 -40t-40 -96l1 -45h-1z" />
<glyph unicode="&#xe7;" d="M98 351v362q0 152 106 258t256 106q151 0 257 -106t106 -257h-181q0 76 -53 129t-129 53q-75 0 -128 -53t-53 -129v-363q0 -75 53 -128t128 -53q76 0 129 53t53 128l181 2q0 -127 -66 -225q-67 -98 -184 -128v-102v-91q0 -38 -26 -64q-27 -27 -64 -27h-146h-83v182h138 v102q-113 21 -214 121q-80 98 -80 230z" />
<glyph unicode="&#xe8;" d="M98 363v362q0 151 106 257q107 107 256 107q150 0 257 -107q106 -106 106 -256v-91v-181h-544v-91q0 -75 53 -128t128 -53q61 0 108 35t65 91l165 -78q-41 -103 -132 -166q-93 -64 -206 -64q-150 0 -256 106t-106 257zM279 635h363v91q0 75 -53 128t-129 53 q-75 0 -128 -53t-53 -128v-91zM279 1451h181l182 -272h-136z" />
<glyph unicode="&#xe9;" d="M98 363v362q0 151 106 257q107 107 256 107q150 0 257 -107q106 -106 106 -256v-91v-181h-544v-91q0 -75 53 -128t128 -53q61 0 108 35t65 91l165 -78q-41 -103 -132 -166q-93 -64 -206 -64q-150 0 -256 106t-106 257zM279 635h363v91q0 75 -53 128t-129 53 q-75 0 -128 -53t-53 -128v-91zM279 1179l182 272h181l-227 -272h-136z" />
<glyph unicode="&#xea;" d="M98 363v362q0 151 106 257q107 107 256 107q150 0 257 -107q106 -106 106 -256v-91v-181h-544v-91q0 -75 53 -128t128 -53q61 0 108 35t65 91l165 -78q-41 -103 -132 -166q-93 -64 -206 -64q-150 0 -256 106t-106 257zM188 1179l182 272h181l182 -272h-137l-136 164 l-136 -164h-136zM279 635h363v91q0 75 -53 128t-129 53q-75 0 -128 -53t-53 -128v-91z" />
<glyph unicode="&#xeb;" d="M98 363v362q0 151 106 257q107 107 256 107q150 0 257 -107q106 -106 106 -256v-91v-181h-544v-91q0 -75 53 -128t128 -53q61 0 108 35t65 91l165 -78q-41 -103 -132 -166q-93 -64 -206 -64q-150 0 -256 106t-106 257zM202 1307q0 37 27 64q26 26 64 26t64 -26 q27 -27 27 -64q0 -6 -2 -18q-6 -31 -31 -52q-26 -21 -58 -21q-37 0 -64 27t-27 64zM279 635h363v91q0 75 -53 128t-129 53q-75 0 -128 -53t-53 -128v-91zM546 1307q0 38 26 64t64 26t64 -26q27 -27 27 -64q0 -6 -2 -18q-6 -31 -31 -52q-26 -21 -58 -21q-37 0 -64 27 q-26 26 -26 64z" />
<glyph unicode="&#xec;" horiz-adv-x="534" d="M54 1451h181l182 -272h-136zM131 272v817h182v-817q0 -38 26 -64t64 -26v-182q-112 0 -192 80t-80 192z" />
<glyph unicode="&#xed;" horiz-adv-x="534" d="M97 1179h136l227 272h-181zM131 272v817h182v-817q0 -38 26 -64t64 -26v-182q-112 0 -192 80t-80 192z" />
<glyph unicode="&#xee;" horiz-adv-x="534" d="M-50 1179l182 272h181l181 -272h-136l-136 164l-136 -164h-136zM131 272v817h182v-817q0 -38 26 -64t64 -26v-182q-112 0 -192 80t-80 192z" />
<glyph unicode="&#xef;" horiz-adv-x="532" d="M-12 1307q0 37 27 64q26 26 64 26t64 -26t26 -64q0 -12 -1 -18q-6 -30 -32 -52q-26 -21 -57 -21q-37 0 -64 27t-27 64zM154 272v817h181v-817q0 -37 27 -64q26 -26 64 -26v-182q-112 0 -192 80t-80 192zM332 1307q0 38 26 64t64 26t64 -26q27 -27 27 -64q0 -6 -2 -18 q-6 -31 -31 -52q-26 -21 -58 -21q-37 0 -64 27q-26 26 -26 64z" />
<glyph unicode="&#xf0;" />
<glyph unicode="&#xf1;" />
<glyph unicode="&#xf2;" d="M98 363v362q0 151 106 257q107 107 256 107q150 0 257 -107q106 -106 106 -256v-363q0 -151 -106 -257t-257 -106q-150 0 -256 106t-106 257zM252 1428h203l153 -254h-151zM279 363q0 -75 53 -128t128 -53q76 0 129 53t53 128v2v361q0 75 -53 128t-129 53q-75 0 -128 -53 t-53 -128v-363z" />
<glyph unicode="&#xf3;" d="M98 363v362q0 151 106 257q107 107 256 107q150 0 257 -107q106 -106 106 -256v-363q0 -151 -106 -257t-257 -106q-150 0 -256 106t-106 257zM279 363q0 -75 53 -128t128 -53q76 0 129 53t53 128v2v361q0 75 -53 128t-129 53q-75 0 -128 -53t-53 -128v-363zM280 1179h136 l226 272h-181z" />
<glyph unicode="&#xf4;" d="M98 363v362q0 151 106 257q107 107 256 107q150 0 257 -107q106 -106 106 -256v-363q0 -151 -106 -257t-257 -106q-150 0 -256 106t-106 257zM188 1179l181 272h182l181 -272h-136l-136 164l-136 -164h-136zM279 363q0 -75 53 -128t128 -53q76 0 129 53t53 128v2v361 q0 75 -53 128t-129 53q-75 0 -128 -53t-53 -128v-363z" />
<glyph unicode="&#xf5;" d="M98 363v362q0 151 106 257q107 107 256 107q150 0 257 -107q106 -106 106 -256v-363q0 -151 -106 -257t-257 -106q-150 0 -256 106t-106 257zM279 363q0 -75 53 -128t128 -53q76 0 129 53t53 128v2v361q0 75 -53 128t-129 53q-75 0 -128 -53t-53 -128v-363z" />
<glyph unicode="&#xf6;" d="M98 363v362q0 151 106 257q107 107 256 107q150 0 257 -107q106 -106 106 -256v-363q0 -151 -106 -257t-257 -106q-150 0 -256 106t-106 257zM202 1307q0 37 27 64q26 26 64 26t64 -26q27 -27 27 -64q0 -6 -2 -18q-6 -31 -31 -52q-26 -21 -58 -21q-37 0 -64 27t-27 64z M279 363q0 -75 53 -128t128 -53q76 0 129 53t53 128v2v361q0 75 -53 128t-129 53q-75 0 -128 -53t-53 -128v-363zM546 1307q0 38 26 64t64 26t64 -26q27 -27 27 -64q0 -6 -2 -18q-6 -31 -31 -52q-26 -21 -58 -21q-37 0 -64 27q-26 26 -26 64z" />
<glyph unicode="&#xf7;" horiz-adv-x="917" d="M188 454v181h544v-181h-544zM362 233q0 37 27 64t64 27t64 -27q26 -26 26 -64t-26 -64t-64 -26t-64 26q-27 27 -27 64zM362 868q0 37 27 64t64 27t64 -27q26 -26 26 -64t-26 -64t-64 -26t-64 26q-27 27 -27 64z" />
<glyph unicode="&#xf8;" d="M98 0l60 162q-60 92 -60 201v725q0 151 106 257t256 106q90 0 167 -40l15 40h181l-60 -162q60 -92 60 -200v-726q0 -151 -106 -257t-257 -106q-89 0 -166 40l-15 -40h-181zM279 484l283 755q-46 31 -102 31q-75 0 -128 -53t-53 -128v-605zM359 213q46 -31 101 -31 q76 0 129 53t53 128v2v603z" />
<glyph unicode="&#xf9;" d="M98 363v726h181v-412v-314q0 -75 53 -128t128 -53q76 0 129 53t53 128v314v412h181v-726v-363h-181v49q-86 -49 -182 -49q-150 0 -256 106t-106 257zM279 1451h181l182 -272h-136z" />
<glyph unicode="&#xfa;" d="M98 363v726h181v-412v-314q0 -75 53 -128t128 -53q76 0 129 53t53 128v314v412h181v-726v-363h-181v49q-86 -49 -182 -49q-150 0 -256 106t-106 257zM279 1179l182 272h181l-227 -272h-136z" />
<glyph unicode="&#xfb;" d="M98 363v726h181v-412v-314q0 -75 53 -128t128 -53q76 0 129 53t53 128v314v412h181v-726v-363h-181v49q-86 -49 -182 -49q-150 0 -256 106t-106 257zM188 1179l182 272h181l182 -272h-137l-136 164l-136 -164h-136z" />
<glyph unicode="&#xfc;" d="M98 363v726h181v-412v-314q0 -75 53 -128t128 -53q76 0 129 53t53 128v314v412h181v-726v-363h-181v49q-86 -49 -182 -49q-150 0 -256 106t-106 257zM202 1307q0 37 27 64q26 26 64 26t64 -26q27 -27 27 -64q0 -6 -2 -18q-6 -31 -31 -52q-26 -21 -58 -21q-37 0 -64 27 t-27 64zM546 1307q0 38 26 64t64 26t64 -26q27 -27 27 -64q0 -6 -2 -18q-6 -31 -31 -52q-26 -21 -58 -21q-37 0 -64 27q-26 26 -26 64z" />
<glyph unicode="&#xfd;" />
<glyph unicode="&#xfe;" />
<glyph unicode="&#xff;" />
<glyph unicode="&#x152;" d="M-78 307v819q0 130 80 219t203 89q102 0 180 -78v78h614v-205h-409v-410h307v-205h-307v-409h409v-205h-614v78q-34 -34 -49 -45q-18 -13 -49 -23t-82 -10q-123 0 -203 89t-80 218zM127 307q0 -42 31 -73q29 -29 73 -29t72 29q29 31 29 73v289v242v288q0 42 -29 73 q-29 30 -72 30t-73 -30q-31 -31 -31 -73v-288v-242v-289z" />
<glyph unicode="&#x153;" horiz-adv-x="1282" d="M96 317v454q0 131 93 224t224 93h1q134 0 226 -95q92 95 227 95q131 0 224 -93t93 -224v-317h-453v-137q0 -56 40 -96t96 -40t96 40t40 96h181q0 -132 -92 -224q-93 -93 -225 -93q-135 0 -227 95q-92 -95 -226 -95h-1q-131 0 -224 93t-93 224zM278 317q0 -57 39 -96 q40 -40 97 -40q56 0 96 40t40 96v137v181v140q-1 52 -42 93q-39 39 -94 39q-57 0 -97 -40q-39 -39 -39 -96v-454zM731 635h272v136q0 56 -40 96t-96 40t-95 -39q-40 -40 -41 -95v-138z" />
<glyph unicode="&#x178;" />
<glyph unicode="&#x2000;" horiz-adv-x="870" />
<glyph unicode="&#x2001;" horiz-adv-x="1740" />
<glyph unicode="&#x2002;" horiz-adv-x="870" />
<glyph unicode="&#x2003;" horiz-adv-x="1740" />
<glyph unicode="&#x2004;" horiz-adv-x="580" />
<glyph unicode="&#x2005;" horiz-adv-x="435" />
<glyph unicode="&#x2006;" horiz-adv-x="290" />
<glyph unicode="&#x2007;" horiz-adv-x="290" />
<glyph unicode="&#x2008;" horiz-adv-x="217" />
<glyph unicode="&#x2009;" horiz-adv-x="348" />
<glyph unicode="&#x200a;" horiz-adv-x="96" />
<glyph unicode="&#x2010;" d="M188 454v181h544v-181h-544z" />
<glyph unicode="&#x2011;" d="M188 454v181h544v-181h-544z" />
<glyph unicode="&#x2012;" d="M188 454v181h544v-181h-544z" />
<glyph unicode="&#x2013;" horiz-adv-x="1401" d="M188 454v181h1024v-181h-1024z" />
<glyph unicode="&#x2014;" horiz-adv-x="2425" d="M188 454v181h2048v-181h-2048z" />
<glyph unicode="&#x202f;" horiz-adv-x="348" />
<glyph unicode="&#x205f;" horiz-adv-x="435" />
<glyph unicode="&#x20ac;" horiz-adv-x="1097" d="M96 506l2 4l54 154q4 10 12 8h121v90h-174q-15 0 -15 16l56 158q4 10 12 8h121v133q0 147 101 249q103 104 247 110q147 4 256 -97q112 -106 112 -252q0 -10 -10 -10h-157q-12 0 -13 10q-17 87 -59 123q-56 50 -129 45t-120 -55q-48 -51 -48 -123v-131h405q15 0 15 -16 l-2 -4l-54 -152q-5 -12 -12 -12h-352v-88h309q14 0 14 -17l-2 -4l-53 -153q-5 -13 -12 -13h-256v-127q0 -74 52 -126t126 -52q71 0 123 47q39 37 55 121q1 10 13 10h157q10 0 10 -10q0 -142 -108 -248q-104 -100 -250 -100q-147 0 -253 106q-105 105 -105 252v129h-174 q-15 0 -15 17z" />
<glyph unicode="&#xe000;" horiz-adv-x="1085" d="M0 0v1085h1085v-1085h-1085z" />
</font>
</defs>
</svg>
