<?xml version="1.0" encoding="UTF-8" standalone="no"?>
<!-- Created with Inkscape (http://www.inkscape.org/) -->

<svg
   xmlns:dc="http://purl.org/dc/elements/1.1/"
   xmlns:cc="http://creativecommons.org/ns#"
   xmlns:rdf="http://www.w3.org/1999/02/22-rdf-syntax-ns#"
   xmlns:svg="http://www.w3.org/2000/svg"
   xmlns="http://www.w3.org/2000/svg"
   xmlns:sodipodi="http://sodipodi.sourceforge.net/DTD/sodipodi-0.dtd"
   xmlns:inkscape="http://www.inkscape.org/namespaces/inkscape"
   width="427"
   height="222"
   id="svg2"
   version="1.1"
   inkscape:version="0.48.2 r9819"
   sodipodi:docname="window.svg">
  <defs
     id="defs4" />
  <sodipodi:namedview
     id="base"
     pagecolor="#ffffff"
     bordercolor="#666666"
     borderopacity="1.0"
     inkscape:pageopacity="0.0"
     inkscape:pageshadow="2"
     inkscape:zoom="2.1230781"
     inkscape:cx="124.20049"
     inkscape:cy="186.07492"
     inkscape:document-units="px"
     inkscape:current-layer="flowRoot3776"
     showgrid="false"
     inkscape:window-width="1037"
     inkscape:window-height="709"
     inkscape:window-x="0"
     inkscape:window-y="0"
     inkscape:window-maximized="0" />
  <metadata
     id="metadata7">
    <rdf:RDF>
      <cc:Work
         rdf:about="">
        <dc:format>image/svg+xml</dc:format>
        <dc:type
           rdf:resource="http://purl.org/dc/dcmitype/StillImage" />
        <dc:title />
      </cc:Work>
    </rdf:RDF>
  </metadata>
  <g
     inkscape:label="Layer 1"
     inkscape:groupmode="layer"
     id="layer1"
     transform="translate(0,-830.36218)">
    <rect
       style="fill:none;stroke:#000000;stroke-width:2.50899999999999990;stroke-linecap:round;stroke-linejoin:round;stroke-miterlimit:4;stroke-opacity:1;stroke-dasharray:none"
       id="rect2985"
       width="424.03293"
       height="218.73166"
       x="1.4949826"
       y="831.94299" />
    <path
       style="fill:none;stroke:#000000;stroke-width:2.5;stroke-linecap:butt;stroke-linejoin:miter;stroke-miterlimit:4;stroke-opacity:1;stroke-dasharray:none"
       d="m 424.04527,856.08328 -422.8388281,0 424.4255881,0"
       id="path3755"
       inkscape:connector-curvature="0"
       sodipodi:nodetypes="ccc" />
    <g
       transform="translate(31.580133,837.67552)"
       style="font-size:40px;font-style:normal;font-weight:normal;line-height:125%;letter-spacing:0px;word-spacing:0px;fill:#000000;fill-opacity:1;stroke:none;font-family:Sans"
       id="flowRoot3776">
      <path
         d="m 42.5805,0.21452731 1.408,0 0,3.21599999 c 0.437331,-0.2559916 0.911997,-0.3839915 1.424,-0.384 0.778662,8.5e-6 1.445328,0.2773416 2,0.832 0.554661,0.5546738 0.831994,1.2266731 0.832,2.016 l 0,5.6639997 -1.424,0 0,-5.6639997 c -5e-6,-0.3946606 -0.138672,-0.7306603 -0.416,-1.008 -0.266671,-0.2773264 -0.597337,-0.4159929 -0.992,-0.416 -0.39467,7.1e-6 -0.73067,0.1386736 -1.008,0.416 -0.277336,0.2773397 -0.416002,0.6133394 -0.416,1.008 l 0,5.6639997 -1.408,0 0,-11.34399969"
         style="font-size:16px;font-variant:normal;font-weight:bold;font-stretch:normal;font-family:Logisoso;-inkscape-font-specification:Logisoso Bold"
         id="path3003" />
      <path
         d="m 50.12,0.21452731 1.408,0 0,2.83199999 1.424,0 0,1.424 -1.424,0 0,4.96 c -3e-6,0.1920019 0.06933,0.3573351 0.208,0.496 0.138664,0.1386677 0.30933,0.2080017 0.512,0.2079997 l 0.704,0 0,1.424 -0.704,0 c -0.586669,0 -1.088002,-0.207999 -1.504,-0.624 -0.416001,-0.415999 -0.624001,-0.917331 -0.624,-1.5039997 l 0,-4.96 -0.704,0 0,-1.424 0.704,0 0,-2.83199999"
         style="font-size:16px;font-variant:normal;font-weight:bold;font-stretch:normal;font-family:Logisoso;-inkscape-font-specification:Logisoso Bold"
         id="path3005" />
      <path
         d="m 54.46375,0.21452731 1.408,0 0,2.83199999 1.424,0 0,1.424 -1.424,0 0,4.96 c -3e-6,0.1920019 0.06933,0.3573351 0.208,0.496 0.138664,0.1386677 0.30933,0.2080017 0.512,0.2079997 l 0.704,0 0,1.424 -0.704,0 c -0.586669,0 -1.088002,-0.207999 -1.504,-0.624 -0.416001,-0.415999 -0.624001,-0.917331 -0.624,-1.5039997 l 0,-4.96 -0.704,0 0,-1.424 0.704,0 0,-2.83199999"
         style="font-size:16px;font-variant:normal;font-weight:bold;font-stretch:normal;font-family:Logisoso;-inkscape-font-specification:Logisoso Bold"
         id="path3007" />
      <path
         d="m 58.4555,14.390527 0,-5.6639997 0,-2.832 0,-2.848 1.408,0 0,0.384 c 0.437331,-0.2559916 0.911997,-0.3839915 1.424,-0.384 0.778662,8.5e-6 1.445328,0.2773416 2,0.832 0.554661,0.5546738 0.831994,1.2266731 0.832,2.016 l 0,2.832 c -6e-6,0.7786687 -0.277339,1.4453347 -0.832,1.9999997 -0.554672,0.554667 -1.221338,0.832 -2,0.832 -0.512003,0 -0.986669,-0.128 -1.424,-0.384 l 0,3.216 -1.408,0 m 1.824,-4.6559997 c 0.27733,0.2666687 0.61333,0.4000017 1.008,0.3999997 0.394663,2e-6 0.725329,-0.133331 0.992,-0.3999997 0.277328,-0.2773312 0.415995,-0.6133309 0.416,-1.008 l 0,-2.832 c -5e-6,-0.3946606 -0.138672,-0.7306603 -0.416,-1.008 -0.266671,-0.2773264 -0.597337,-0.4159929 -0.992,-0.416 -0.39467,7.1e-6 -0.73067,0.1386736 -1.008,0.416 -0.277336,0.2773397 -0.416002,0.6133394 -0.416,1.008 l 0,2.832 c -2e-6,0.3946691 0.138664,0.7306688 0.416,1.008"
         style="font-size:16px;font-variant:normal;font-weight:bold;font-stretch:normal;font-family:Logisoso;-inkscape-font-specification:Logisoso Bold"
         id="path3009" />
      <path
         d="m 66.459,3.9745273 c 0.138665,-0.1386589 0.303998,-0.2079922 0.496,-0.208 0.191998,7.8e-6 0.357331,0.069341 0.496,0.208 0.138664,0.1386741 0.207997,0.3040073 0.208,0.496 -3e-6,0.1920069 -0.06934,0.3573401 -0.208,0.496 -0.138669,0.1386731 -0.304002,0.2080064 -0.496,0.208 -0.192002,6.4e-6 -0.357335,-0.069327 -0.496,-0.208 -0.138668,-0.1386599 -0.208001,-0.3039931 -0.208,-0.496 -1e-6,-0.1919927 0.06933,-0.3573259 0.208,-0.496 m 0,4.96 c 0.138665,-0.1386639 0.303998,-0.2079972 0.496,-0.208 0.191998,2.8e-6 0.357331,0.069336 0.496,0.208 0.138664,0.1386692 0.207997,0.3040023 0.208,0.496 -3e-6,0.1920019 -0.06934,0.3573351 -0.208,0.496 -0.138669,0.1386677 -0.304002,0.2080017 -0.496,0.2079997 -0.192002,2e-6 -0.357335,-0.06933 -0.496,-0.2079997 -0.138668,-0.1386649 -0.208001,-0.3039981 -0.208,-0.496 -1e-6,-0.1919977 0.06933,-0.3573308 0.208,-0.496"
         style="font-size:16px;font-variant:normal;font-weight:bold;font-stretch:normal;font-family:Logisoso;-inkscape-font-specification:Logisoso Bold"
         id="path3011" />
      <path
         d="m 73.91125,0.37452731 1.28,0 0.032,0 c 0.07466,0.0213445 0.101327,0.0693444 0.08,0.144 l -3.856,10.97599969 c -0.01067,0.04267 -0.04267,0.064 -0.096,0.064 l -1.28,0 -0.032,0 c -0.07467,-0.02133 -0.101334,-0.06933 -0.08,-0.144 l 3.84,-10.97599969 c 0.01066,-0.0426555 0.048,-0.0639888 0.112,-0.064"
         style="font-size:16px;font-variant:normal;font-weight:bold;font-stretch:normal;font-family:Logisoso;-inkscape-font-specification:Logisoso Bold"
         id="path3013" />
      <path
         d="m 81.09875,0.37452731 1.28,0 0.032,0 c 0.07466,0.0213445 0.101327,0.0693444 0.08,0.144 l -3.856,10.97599969 c -0.01067,0.04267 -0.04267,0.064 -0.096,0.064 l -1.28,0 -0.032,0 c -0.07467,-0.02133 -0.101334,-0.06933 -0.08,-0.144 l 3.84,-10.97599969 c 0.01066,-0.0426555 0.048,-0.0639888 0.112,-0.064"
         style="font-size:16px;font-variant:normal;font-weight:bold;font-stretch:normal;font-family:Logisoso;-inkscape-font-specification:Logisoso Bold"
         id="path3015" />
      <path
         d="m 86.20625,0.83852731 c 0.415997,-0.41598887 0.91733,-0.62398866 1.504,-0.624 0.586662,1.134e-5 1.087995,0.20801113 1.504,0.624 0.415994,0.41601029 0.623994,0.91734309 0.624,1.50399999 l -0.448,0 -0.976,0 c -5e-6,-0.1919906 -0.06934,-0.3573238 -0.208,-0.496 -0.138671,-0.1386568 -0.304004,-0.2079901 -0.496,-0.208 -0.192004,9.9e-6 -0.357337,0.069343 -0.496,0.208 -0.13867,0.1386762 -0.208004,0.3040094 -0.208,0.496 l 0,2.128 2.128,0 0,1.424 -2.128,0 0,5.6639997 -1.424,0 0,-5.6639997 -1.408,0 0,-1.424 1.408,0 0,-2.128 c -2e-6,-0.5866569 0.207998,-1.0879897 0.624,-1.50399999"
         style="font-size:16px;font-variant:normal;font-weight:bold;font-stretch:normal;font-family:Logisoso;-inkscape-font-specification:Logisoso Bold"
         id="path3017" />
      <path
         d="m 92.17775,3.8785273 c 0.554665,-0.5546584 1.221331,-0.8319915 2,-0.832 0.789329,8.5e-6 1.461328,0.2773416 2.016,0.832 0.554661,0.5546738 0.831994,1.2266731 0.832,2.016 l 0,2.832 c -6e-6,0.7786687 -0.277339,1.4453347 -0.832,1.9999997 -0.554672,0.554667 -1.226671,0.832 -2.016,0.832 -0.778669,0 -1.445335,-0.277333 -2,-0.832 -0.544001,-0.554665 -0.816001,-1.221331 -0.816,-1.9999997 l 0,-2.832 c -10e-7,-0.7893269 0.271999,-1.4613262 0.816,-2.016 m 3.008,1.008 c -0.266671,-0.2773264 -0.597337,-0.4159929 -0.992,-0.416 -0.39467,7.1e-6 -0.73067,0.1386736 -1.008,0.416 -0.277336,0.2773397 -0.416002,0.6133394 -0.416,1.008 l 0,2.832 c -2e-6,0.3840025 0.138664,0.7146688 0.416,0.992 0.27733,0.2773349 0.61333,0.4160017 1.008,0.4159997 0.394663,2e-6 0.725329,-0.1386648 0.992,-0.4159997 0.277328,-0.2773312 0.415995,-0.6079975 0.416,-0.992 l 0,-0.016 0,-2.816 c -5e-6,-0.3946606 -0.138672,-0.7306603 -0.416,-1.008"
         style="font-size:16px;font-variant:normal;font-weight:bold;font-stretch:normal;font-family:Logisoso;-inkscape-font-specification:Logisoso Bold"
         id="path3019" />
      <path
         d="m 98.51725,3.0465273 1.424,0 0,0.384 c 0.43733,-0.2559916 0.90666,-0.3839915 1.408,-0.384 l 1.424,0 0,2.128 -1.424,0 0,-0.704 c -0.39467,7.1e-6 -0.73067,0.1386736 -1.008,0.416 -0.26667,0.2773397 -0.400002,0.6133394 -0.4,1.008 l 0,2.448 0,3.2159997 -1.424,0 0,-5.6639997 0,-2.848"
         style="font-size:16px;font-variant:normal;font-weight:bold;font-stretch:normal;font-family:Logisoso;-inkscape-font-specification:Logisoso Bold"
         id="path3021" />
      <path
         d="m 105.11525,3.8785273 c 0.55466,-0.5546584 1.22133,-0.8319915 2,-0.832 0.78933,8.5e-6 1.46133,0.2773416 2.016,0.832 0.55466,0.5546738 0.83199,1.2266731 0.832,2.016 l 0,0.704 0,1.408 -4.256,0 0,0.72 c 0,0.3840025 0.13866,0.7146688 0.416,0.992 0.27733,0.2773349 0.61333,0.4160017 1.008,0.4159997 0.30933,2e-6 0.58666,-0.09066 0.832,-0.2719997 0.256,-0.1813315 0.42666,-0.4159979 0.512,-0.704 l 1.296,0.608 c -0.21334,0.5333347 -0.56001,0.9653337 -1.04,1.2959997 -0.48,0.330667 -1.01334,0.496 -1.6,0.496 -0.78934,0 -1.46134,-0.277333 -2.016,-0.832 -0.544,-0.554665 -0.816,-1.221331 -0.816,-1.9999997 l 0,-2.832 c 0,-0.7893269 0.272,-1.4613262 0.816,-2.016 m 3.008,1.008 c -0.26667,-0.2773264 -0.59734,-0.4159929 -0.992,-0.416 -0.39467,7.1e-6 -0.73067,0.1386736 -1.008,0.416 -0.27734,0.2773397 -0.416,0.6133394 -0.416,1.008 l 0,0.704 2.832,0 0,-0.704 c -10e-6,-0.3946606 -0.13867,-0.7306603 -0.416,-1.008"
         style="font-size:16px;font-variant:normal;font-weight:bold;font-stretch:normal;font-family:Logisoso;-inkscape-font-specification:Logisoso Bold"
         id="path3023" />
      <path
         d="m 111.83875,0.21452731 1.408,0 0,2.83199999 1.424,0 0,1.424 -1.424,0 0,4.96 c 0,0.1920019 0.0693,0.3573351 0.208,0.496 0.13866,0.1386677 0.30933,0.2080017 0.512,0.2079997 l 0.704,0 0,1.424 -0.704,0 c -0.58667,0 -1.088,-0.207999 -1.504,-0.624 -0.416,-0.415999 -0.624,-0.917331 -0.624,-1.5039997 l 0,-4.96 -0.704,0 0,-1.424 0.704,0 0,-2.83199999"
         style="font-size:16px;font-variant:normal;font-weight:bold;font-stretch:normal;font-family:Logisoso;-inkscape-font-specification:Logisoso Bold"
         id="path3025" />
      <path
         d="m 115.7985,3.0465273 1.424,0 1.408,7.0879997 1.424,-7.0879997 1.408,0 1.424,7.0879997 1.408,-7.0879997 1.424,0 -1.696,8.5119997 -1.136,0 -1.136,0 -0.992,-4.9599997 -0.992,4.9599997 -1.136,0 -1.136,0 -1.696,-8.5119997"
         style="font-size:16px;font-variant:normal;font-weight:bold;font-stretch:normal;font-family:Logisoso;-inkscape-font-specification:Logisoso Bold"
         id="path3027" />
      <path
         d="m 128.05275,3.8785273 c 0.55466,-0.5546584 1.22133,-0.8319915 2,-0.832 0.78933,8.5e-6 1.46133,0.2773416 2.016,0.832 0.55466,0.5546738 0.83199,1.2266731 0.832,2.016 l 0,2.832 c -10e-6,0.7786687 -0.27734,1.4453347 -0.832,1.9999997 -0.55467,0.554667 -1.22667,0.832 -2.016,0.832 -0.77867,0 -1.44534,-0.277333 -2,-0.832 -0.544,-0.554665 -0.816,-1.221331 -0.816,-1.9999997 l 0,-2.832 c 0,-0.7893269 0.272,-1.4613262 0.816,-2.016 m 3.008,1.008 c -0.26667,-0.2773264 -0.59734,-0.4159929 -0.992,-0.416 -0.39467,7.1e-6 -0.73067,0.1386736 -1.008,0.416 -0.27734,0.2773397 -0.416,0.6133394 -0.416,1.008 l 0,2.832 c 0,0.3840025 0.13866,0.7146688 0.416,0.992 0.27733,0.2773349 0.61333,0.4160017 1.008,0.4159997 0.39466,2e-6 0.72533,-0.1386648 0.992,-0.4159997 0.27733,-0.2773312 0.41599,-0.6079975 0.416,-0.992 l 0,-0.016 0,-2.816 c -1e-5,-0.3946606 -0.13867,-0.7306603 -0.416,-1.008"
         style="font-size:16px;font-variant:normal;font-weight:bold;font-stretch:normal;font-family:Logisoso;-inkscape-font-specification:Logisoso Bold"
         id="path3029" />
      <path
         d="m 135.24025,3.8785273 c 0.55466,-0.5546584 1.22133,-0.8319915 2,-0.832 0.78933,8.5e-6 1.46133,0.2773416 2.016,0.832 0.55466,0.5546738 0.83199,1.2266731 0.832,2.016 l 0,2.832 c -10e-6,0.7786687 -0.27734,1.4453347 -0.832,1.9999997 -0.55467,0.554667 -1.22667,0.832 -2.016,0.832 -0.77867,0 -1.44534,-0.277333 -2,-0.832 -0.544,-0.554665 -0.816,-1.221331 -0.816,-1.9999997 l 0,-2.832 c 0,-0.7893269 0.272,-1.4613262 0.816,-2.016 m 3.008,1.008 c -0.26667,-0.2773264 -0.59734,-0.4159929 -0.992,-0.416 -0.39467,7.1e-6 -0.73067,0.1386736 -1.008,0.416 -0.27734,0.2773397 -0.416,0.6133394 -0.416,1.008 l 0,2.832 c 0,0.3840025 0.13866,0.7146688 0.416,0.992 0.27733,0.2773349 0.61333,0.4160017 1.008,0.4159997 0.39466,2e-6 0.72533,-0.1386648 0.992,-0.4159997 0.27733,-0.2773312 0.41599,-0.6079975 0.416,-0.992 l 0,-0.016 0,-2.816 c -1e-5,-0.3946606 -0.13867,-0.7306603 -0.416,-1.008"
         style="font-size:16px;font-variant:normal;font-weight:bold;font-stretch:normal;font-family:Logisoso;-inkscape-font-specification:Logisoso Bold"
         id="path3031" />
      <path
         d="m 147.27575,0.21452731 0,11.34399969 -1.424,0 0,-0.384 c -0.43734,0.256 -0.90667,0.384 -1.408,0.384 -0.78934,0 -1.46134,-0.277333 -2.016,-0.832 -0.544,-0.554665 -0.816,-1.2266643 -0.816,-2.0159997 l 0,-2.816 c 0,-0.7893269 0.27733,-1.4613262 0.832,-2.016 0.55466,-0.5546584 1.22133,-0.8319915 2,-0.832 0.512,8.5e-6 0.98133,0.1280084 1.408,0.384 l 0,-3.21599999 1.424,0 m -1.84,4.67199999 c -0.26667,-0.2773264 -0.59734,-0.4159929 -0.992,-0.416 -0.39467,7.1e-6 -0.73067,0.1386736 -1.008,0.416 -0.27734,0.2773397 -0.416,0.6133394 -0.416,1.008 l 0,2.832 c 0,0.3946691 0.13866,0.7306688 0.416,1.008 0.27733,0.2666687 0.61333,0.4000017 1.008,0.3999997 0.39466,2e-6 0.72533,-0.1386648 0.992,-0.4159997 0.27733,-0.2773312 0.41599,-0.6079975 0.416,-0.992 l 0,-2.832 c -1e-5,-0.3946606 -0.13867,-0.7306603 -0.416,-1.008"
         style="font-size:16px;font-variant:normal;font-weight:bold;font-stretch:normal;font-family:Logisoso;-inkscape-font-specification:Logisoso Bold"
         id="path3033" />
      <path
         d="m 150.81525,10.854527 c 0,0.04267 -0.005,0.09067 -0.016,0.144 -0.032,0.160001 -0.112,0.293334 -0.24,0.4 -0.128,0.106667 -0.27734,0.16 -0.448,0.16 -0.192,0 -0.35734,-0.06933 -0.496,-0.208 -0.13867,-0.138666 -0.208,-0.303999 -0.208,-0.496 0,-0.202665 0.0693,-0.373332 0.208,-0.512 0.13866,-0.138665 0.304,-0.207998 0.496,-0.208 0.192,2e-6 0.35733,0.06934 0.496,0.208 0.13866,0.138668 0.208,0.309335 0.208,0.512"
         style="font-size:16px;font-variant:normal;font-weight:bold;font-stretch:normal;font-family:Logisoso;-inkscape-font-specification:Logisoso Bold"
         id="path3035" />
      <path
         d="m 153.3075,0.21452731 1.408,0 0,2.83199999 1.424,0 0,1.424 -1.424,0 0,4.96 c 0,0.1920019 0.0693,0.3573351 0.208,0.496 0.13866,0.1386677 0.30933,0.2080017 0.512,0.2079997 l 0.704,0 0,1.424 -0.704,0 c -0.58667,0 -1.088,-0.207999 -1.504,-0.624 -0.416,-0.415999 -0.624,-0.917331 -0.624,-1.5039997 l 0,-4.96 -0.704,0 0,-1.424 0.704,0 0,-2.83199999"
         style="font-size:16px;font-variant:normal;font-weight:bold;font-stretch:normal;font-family:Logisoso;-inkscape-font-specification:Logisoso Bold"
         id="path3037" />
      <path
         d="m 162.96325,11.558527 -1.424,0 0,-0.384 c -0.43734,0.256 -0.90667,0.384 -1.408,0.384 -0.77867,0 -1.44534,-0.277333 -2,-0.832 -0.55467,-0.554665 -0.832,-1.221331 -0.832,-1.9999997 l 0,-5.68 1.408,0 0,3.216 0,2.464 c 0,0.3946691 0.13866,0.7306688 0.416,1.008 0.27733,0.2666687 0.61333,0.4000017 1.008,0.3999997 0.39466,2e-6 0.72533,-0.133331 0.992,-0.3999997 0.27733,-0.2773312 0.41599,-0.6133309 0.416,-1.008 l 0,-2.448 0,-3.232 1.424,0 0,5.68 0,2.8319997"
         style="font-size:16px;font-variant:normal;font-weight:bold;font-stretch:normal;font-family:Logisoso;-inkscape-font-specification:Logisoso Bold"
         id="path3039" />
      <path
         d="m 164.47075,3.0465273 1.424,0 0,0.384 c 0.43733,-0.2559916 0.90666,-0.3839915 1.408,-0.384 0.85333,8.5e-6 1.56266,0.3200082 2.128,0.96 0.56533,-0.6399918 1.27466,-0.9599915 2.128,-0.96 0.77866,8.5e-6 1.44532,0.2773416 2,0.832 0.55466,0.5546738 0.83199,1.2266731 0.832,2.016 l 0,5.6639997 -1.424,0 0,-3.2159997 0,-2.448 c -1e-5,-0.3946606 -0.13868,-0.7306603 -0.416,-1.008 -0.26668,-0.2773264 -0.59734,-0.4159929 -0.992,-0.416 -0.39467,7.1e-6 -0.73067,0.1386736 -1.008,0.416 -0.27734,0.2773397 -0.41601,0.6133394 -0.416,1.008 l 0,5.6639997 -1.408,0 0,-3.2159997 0,-2.448 c -1e-5,-0.3946606 -0.13867,-0.7306603 -0.416,-1.008 -0.27734,-0.2773264 -0.61334,-0.4159929 -1.008,-0.416 -0.384,7.1e-6 -0.71467,0.1386736 -0.992,0.416 -0.27734,0.2773397 -0.416,0.6133394 -0.416,1.008 l 0,2.448 0,3.2159997 -1.424,0 0,-5.6639997 0,-2.848"
         style="font-size:16px;font-variant:normal;font-weight:bold;font-stretch:normal;font-family:Logisoso;-inkscape-font-specification:Logisoso Bold"
         id="path3041" />
      <path
         d="m 175.92425,0.21452731 1.424,0 0,3.21599999 c 0.42666,-0.2559916 0.896,-0.3839915 1.408,-0.384 0.77866,8.5e-6 1.44533,0.2773416 2,0.832 0.55466,0.5546738 0.83199,1.2266731 0.832,2.016 l 0,2.816 c -10e-6,0.7893354 -0.27734,1.4613347 -0.832,2.0159997 -0.54401,0.554667 -1.21067,0.832 -2,0.832 -0.50134,0 -0.97067,-0.128 -1.408,-0.384 l 0,0.384 -1.424,0 0,-2.8319997 0,-2.832 0,-5.67999999 m 3.84,4.67199999 c -0.27734,-0.2773264 -0.61334,-0.4159929 -1.008,-0.416 -0.39467,7.1e-6 -0.73067,0.1386736 -1.008,0.416 -0.26667,0.2773397 -0.4,0.6133394 -0.4,1.008 l 0,2.832 c 0,0.3840025 0.13333,0.7146688 0.4,0.992 0.27733,0.2773349 0.61333,0.4160017 1.008,0.4159997 0.39466,2e-6 0.73066,-0.1386648 1.008,-0.4159997 0.27733,-0.2773312 0.41599,-0.6079975 0.416,-0.992 l 0,-2.832 c -1e-5,-0.3946606 -0.13867,-0.7306603 -0.416,-1.008"
         style="font-size:16px;font-variant:normal;font-weight:bold;font-stretch:normal;font-family:Logisoso;-inkscape-font-specification:Logisoso Bold"
         id="path3043" />
      <path
         d="m 183.11175,0.21452731 1.408,0 0,9.21599999 c 0,0.1920019 0.0693,0.3573351 0.208,0.496 0.13866,0.1386677 0.30933,0.2080017 0.512,0.2079997 l 0.704,0 0,1.424 -0.704,0 c -0.58667,0 -1.088,-0.207999 -1.504,-0.624 -0.416,-0.415999 -0.624,-0.917331 -0.624,-1.5039997 l 0,-9.21599999"
         style="font-size:16px;font-variant:normal;font-weight:bold;font-stretch:normal;font-family:Logisoso;-inkscape-font-specification:Logisoso Bold"
         id="path3045" />
      <path
         d="m 187.4235,3.0465273 1.424,0 0,0.384 c 0.43733,-0.2559916 0.90666,-0.3839915 1.408,-0.384 l 1.424,0 0,2.128 -1.424,0 0,-0.704 c -0.39467,7.1e-6 -0.73067,0.1386736 -1.008,0.416 -0.26667,0.2773397 -0.4,0.6133394 -0.4,1.008 l 0,2.448 0,3.2159997 -1.424,0 0,-5.6639997 0,-2.848"
         style="font-size:16px;font-variant:normal;font-weight:bold;font-stretch:normal;font-family:Logisoso;-inkscape-font-specification:Logisoso Bold"
         id="path3047" />
      <path
         d="m 195.2215,10.854527 c 0,0.04267 -0.005,0.09067 -0.016,0.144 -0.032,0.160001 -0.112,0.293334 -0.24,0.4 -0.128,0.106667 -0.27734,0.16 -0.448,0.16 -0.192,0 -0.35734,-0.06933 -0.496,-0.208 -0.13867,-0.138666 -0.208,-0.303999 -0.208,-0.496 0,-0.202665 0.0693,-0.373332 0.208,-0.512 0.13866,-0.138665 0.304,-0.207998 0.496,-0.208 0.192,2e-6 0.35733,0.06934 0.496,0.208 0.13866,0.138668 0.208,0.309335 0.208,0.512"
         style="font-size:16px;font-variant:normal;font-weight:bold;font-stretch:normal;font-family:Logisoso;-inkscape-font-specification:Logisoso Bold"
         id="path3049" />
      <path
         d="m 198.17775,3.8945273 c 0.55466,-0.5546584 1.22133,-0.8319915 2,-0.832 0.78933,8.5e-6 1.46133,0.2773416 2.016,0.832 0.55466,0.5440071 0.83199,1.2106731 0.832,2 l -1.424,0 c -1e-5,-0.3946606 -0.13867,-0.7306603 -0.416,-1.008 -0.26667,-0.2773264 -0.59734,-0.4159929 -0.992,-0.416 -0.39467,7.1e-6 -0.73067,0.1386736 -1.008,0.416 -0.27734,0.2773397 -0.416,0.6133394 -0.416,1.008 l 0,2.832 c 0,0.3946691 0.13866,0.7306688 0.416,1.008 0.27733,0.2666687 0.61333,0.4000017 1.008,0.3999997 0.39466,2e-6 0.72533,-0.1386648 0.992,-0.4159997 0.27733,-0.2773312 0.41599,-0.6079975 0.416,-0.992 l 0,-0.016 1.424,0 0,0.016 c -10e-6,0.7786687 -0.27734,1.4453347 -0.832,1.9999997 -0.55467,0.554667 -1.22667,0.832 -2.016,0.832 -0.77867,0 -1.44534,-0.277333 -2,-0.832 -0.544,-0.554665 -0.816,-1.221331 -0.816,-1.9999997 l 0,-2.832 c 0,-0.7893269 0.272,-1.4559929 0.816,-2"
         style="font-size:16px;font-variant:normal;font-weight:bold;font-stretch:normal;font-family:Logisoso;-inkscape-font-specification:Logisoso Bold"
         id="path3051" />
      <path
         d="m 205.36525,3.8785273 c 0.55466,-0.5546584 1.22133,-0.8319915 2,-0.832 0.78933,8.5e-6 1.46133,0.2773416 2.016,0.832 0.55466,0.5546738 0.83199,1.2266731 0.832,2.016 l 0,2.832 c -10e-6,0.7786687 -0.27734,1.4453347 -0.832,1.9999997 -0.55467,0.554667 -1.22667,0.832 -2.016,0.832 -0.77867,0 -1.44534,-0.277333 -2,-0.832 -0.544,-0.554665 -0.816,-1.221331 -0.816,-1.9999997 l 0,-2.832 c 0,-0.7893269 0.272,-1.4613262 0.816,-2.016 m 3.008,1.008 c -0.26667,-0.2773264 -0.59734,-0.4159929 -0.992,-0.416 -0.39467,7.1e-6 -0.73067,0.1386736 -1.008,0.416 -0.27734,0.2773397 -0.416,0.6133394 -0.416,1.008 l 0,2.832 c 0,0.3840025 0.13866,0.7146688 0.416,0.992 0.27733,0.2773349 0.61333,0.4160017 1.008,0.4159997 0.39466,2e-6 0.72533,-0.1386648 0.992,-0.4159997 0.27733,-0.2773312 0.41599,-0.6079975 0.416,-0.992 l 0,-0.016 0,-2.816 c -1e-5,-0.3946606 -0.13867,-0.7306603 -0.416,-1.008"
         style="font-size:16px;font-variant:normal;font-weight:bold;font-stretch:normal;font-family:Logisoso;-inkscape-font-specification:Logisoso Bold"
         id="path3053" />
      <path
         d="m 211.72075,3.0465273 1.424,0 0,0.384 c 0.43733,-0.2559916 0.90666,-0.3839915 1.408,-0.384 0.85333,8.5e-6 1.56266,0.3200082 2.128,0.96 0.56533,-0.6399918 1.27466,-0.9599915 2.128,-0.96 0.77866,8.5e-6 1.44532,0.2773416 2,0.832 0.55466,0.5546738 0.83199,1.2266731 0.832,2.016 l 0,5.6639997 -1.424,0 0,-3.2159997 0,-2.448 c -1e-5,-0.3946606 -0.13868,-0.7306603 -0.416,-1.008 -0.26668,-0.2773264 -0.59734,-0.4159929 -0.992,-0.416 -0.39467,7.1e-6 -0.73067,0.1386736 -1.008,0.416 -0.27734,0.2773397 -0.41601,0.6133394 -0.416,1.008 l 0,5.6639997 -1.408,0 0,-3.2159997 0,-2.448 c -1e-5,-0.3946606 -0.13867,-0.7306603 -0.416,-1.008 -0.27734,-0.2773264 -0.61334,-0.4159929 -1.008,-0.416 -0.384,7.1e-6 -0.71467,0.1386736 -0.992,0.416 -0.27734,0.2773397 -0.416,0.6133394 -0.416,1.008 l 0,2.448 0,3.2159997 -1.424,0 0,-5.6639997 0,-2.848"
         style="font-size:16px;font-variant:normal;font-weight:bold;font-stretch:normal;font-family:Logisoso;-inkscape-font-specification:Logisoso Bold"
         id="path3055" />
      <path
         d="m 227.28625,0.37452731 1.28,0 0.032,0 c 0.0747,0.0213445 0.10133,0.0693444 0.08,0.144 l -3.856,10.97599969 c -0.0107,0.04267 -0.0427,0.064 -0.096,0.064 l -1.28,0 -0.032,0 c -0.0747,-0.02133 -0.10133,-0.06933 -0.08,-0.144 l 3.84,-10.97599969 c 0.0107,-0.0426555 0.048,-0.0639888 0.112,-0.064"
         style="font-size:16px;font-variant:normal;font-weight:bold;font-stretch:normal;font-family:Logisoso;-inkscape-font-specification:Logisoso Bold"
         id="path3057" />
    </g>
    <path
       style="fill:none;stroke:#000000;stroke-width:1.40977633;stroke-linecap:round;stroke-linejoin:round;stroke-miterlimit:4;stroke-opacity:1"
       d="m 8.7808905,838.29047 11.5430985,0 0,11.54309 -11.5430985,0 z"
       id="rect3788" />
    <g
       id="g3810"
       transform="translate(0.78913397,-0.41056884)">
      <path
         inkscape:connector-curvature="0"
         id="path3794"
         d="M 8.424096,849.81183 19.102513,839.13341"
         style="fill:none;stroke:#000000;stroke-width:1.5;stroke-linecap:butt;stroke-linejoin:miter;stroke-miterlimit:4;stroke-opacity:1;stroke-dasharray:none" />
      <path
         style="fill:none;stroke:#000000;stroke-width:1.5;stroke-linecap:butt;stroke-linejoin:miter;stroke-miterlimit:4;stroke-opacity:1;stroke-dasharray:none"
         d="M 19.102513,849.81183 8.424096,839.13341"
         id="path3796"
         inkscape:connector-curvature="0" />
    </g>
    <g
       transform="matrix(1.0000087,0,0,1,-10.211326,837.07952)"
       style="font-size:40px;font-style:normal;font-weight:normal;line-height:125%;letter-spacing:0px;word-spacing:0px;fill:#000000;fill-opacity:1;stroke:none;font-family:Sans"
       id="flowRoot3814">
      <path
         d="m 46.6285,3.2225273 0,-0.016 0.976,0.976 -2.48,2.464 7.504,0 0,1.36 -7.504,0 2.48,2.4799997 -0.976,0.96 -4.112,-4.1119997 4.112,-4.112"
         style="font-size:16px;font-variant:normal;font-weight:bold;font-stretch:normal;font-family:Logisoso;-inkscape-font-specification:Logisoso Bold"
         id="path2997" />
      <path
         d="m 67.25125,11.430527 -0.016,0.016 -0.96,-0.96 2.48,-2.4799997 -7.52,0 0,-1.36 7.52,0 -2.48,-2.464 0.96,-0.976 4.112,4.128 -4.096,4.0959997"
         style="font-size:16px;font-variant:normal;font-weight:bold;font-stretch:normal;font-family:Logisoso;-inkscape-font-specification:Logisoso Bold"
         id="path2999" />
    </g>
  </g>
</svg>
