<?xml version="1.0" encoding="UTF-8" standalone="no"?>
<!-- Created with Inkscape (http://www.inkscape.org/) -->

<svg
   xmlns:dc="http://purl.org/dc/elements/1.1/"
   xmlns:cc="http://creativecommons.org/ns#"
   xmlns:rdf="http://www.w3.org/1999/02/22-rdf-syntax-ns#"
   xmlns:svg="http://www.w3.org/2000/svg"
   xmlns="http://www.w3.org/2000/svg"
   xmlns:sodipodi="http://sodipodi.sourceforge.net/DTD/sodipodi-0.dtd"
   xmlns:inkscape="http://www.inkscape.org/namespaces/inkscape"
   width="203"
   height="222"
   id="svg2"
   version="1.1"
   inkscape:version="0.48.2 r9819"
   sodipodi:docname="bubble.png">
  <defs
     id="defs4" />
  <sodipodi:namedview
     id="base"
     pagecolor="#ffffff"
     bordercolor="#666666"
     borderopacity="1.0"
     inkscape:pageopacity="0.0"
     inkscape:pageshadow="2"
     inkscape:zoom="1.5689012"
     inkscape:cx="99.541291"
     inkscape:cy="110.86425"
     inkscape:document-units="px"
     inkscape:current-layer="layer1"
     showgrid="false"
     inkscape:window-width="821"
     inkscape:window-height="720"
     inkscape:window-x="539"
     inkscape:window-y="0"
     inkscape:window-maximized="0"
     showguides="true"
     inkscape:guide-bbox="true"
     inkscape:snap-grids="true">
    <sodipodi:guide
       orientation="0,1"
       position="255.5929,-36.33116"
       id="guide3823" />
    <inkscape:grid
       type="xygrid"
       id="grid3833" />
  </sodipodi:namedview>
  <metadata
     id="metadata7">
    <rdf:RDF>
      <cc:Work
         rdf:about="">
        <dc:format>image/svg+xml</dc:format>
        <dc:type
           rdf:resource="http://purl.org/dc/dcmitype/StillImage" />
        <dc:title></dc:title>
      </cc:Work>
    </rdf:RDF>
  </metadata>
  <g
     inkscape:label="Layer 1"
     inkscape:groupmode="layer"
     id="layer1"
     transform="translate(0,-830.36218)">
    <path
       style="opacity:0.98999999000000005;fill:#ffffff;stroke:#000000;stroke-width:3;stroke-linecap:round;stroke-linejoin:round;stroke-miterlimit:4;stroke-opacity:1;stroke-dasharray:none"
       inkscape:transform-center-y="1.2230221"
       d="m 136.69319,884.62357 -2.78134,3.66913 -2.78134,3.66914 -2.78134,-3.66914 -2.78134,-3.66913 -0.0792,10e-4 c -9.29729,0 -16.83423,-7.53695 -16.83423,-16.83424 0,-9.29729 7.53694,-16.83424 17.26811,-16.83419 l 20.54629,5e-5 0.54675,0 c 9.2973,0 16.83424,7.53694 16.83424,16.83424 0,9.29729 -7.53694,16.83424 -16.83424,16.83424 l -0.88116,-0.008 -9.18843,0"
       id="path3817"
       inkscape:connector-curvature="0"
       sodipodi:nodetypes="ccccccscccsccc"
       inkscape:transform-center-x="1.8387038e-05" />
    <g
       transform="translate(98.795259,832.27435)"
       style="font-size:40px;font-style:normal;font-variant:normal;font-weight:bold;font-stretch:normal;line-height:125%;letter-spacing:0px;word-spacing:0px;fill:#000000;fill-opacity:1;stroke:none;font-family:Logisoso;-inkscape-font-specification:Logisoso Bold"
       id="flowRoot3834">
      <path
         d="m 24.2925,31.899409 c 0.693331,-0.693323 1.526663,-1.039989 2.5,-1.04 0.986661,1.1e-5 1.82666,0.346677 2.52,1.04 0.693326,0.680009 1.039992,1.513342 1.04,2.5 l -1.78,0 c -6e-6,-0.493326 -0.173339,-0.913325 -0.52,-1.26 -0.333339,-0.346658 -0.746672,-0.519991 -1.24,-0.52 -0.493337,9e-6 -0.913337,0.173342 -1.26,0.52 -0.34667,0.346675 -0.520003,0.766674 -0.52,1.26 l 0,3.54 c -3e-6,0.493337 0.17333,0.913336 0.52,1.26 0.346663,0.333335 0.766663,0.500002 1.26,0.5 0.493328,2e-6 0.906661,-0.173331 1.24,-0.52 0.346661,-0.346664 0.519994,-0.759997 0.52,-1.24 l 0,-0.02 1.78,0 0,0.02 c -8e-6,0.973336 -0.346674,1.806669 -1.04,2.5 -0.69334,0.693334 -1.533339,1.04 -2.52,1.04 -0.973337,0 -1.806669,-0.346666 -2.5,-1.04 -0.680001,-0.693331 -1.020001,-1.526664 -1.02,-2.5 l 0,-3.54 c -1e-6,-0.986658 0.339999,-1.819991 1.02,-2.5"
         style="font-size:20px"
         id="path3843" />
      <path
         d="m 32.256875,27.299409 1.76,0 0,11.52 c -3e-6,0.240003 0.08666,0.446669 0.26,0.62 0.17333,0.173335 0.386663,0.260002 0.64,0.26 l 0.88,0 0,1.78 -0.88,0 c -0.733336,0 -1.360002,-0.26 -1.88,-0.78 -0.520001,-0.519999 -0.780001,-1.146665 -0.78,-1.88 l 0,-11.52"
         style="font-size:20px"
         id="path3845" />
      <path
         d="m 38.266562,27.559409 c 0.173332,-0.173319 0.379999,-0.259986 0.62,-0.26 0.253331,1.4e-5 0.466665,0.08668 0.64,0.26 0.173331,0.173347 0.259997,0.38668 0.260001,0.64 -4e-6,0.240013 -0.08667,0.44668 -0.260001,0.62 -0.173335,0.173346 -0.386669,0.260013 -0.64,0.26 -0.240001,1.3e-5 -0.446668,-0.08665 -0.62,-0.26 -0.173334,-0.17332 -0.260001,-0.379987 -0.26,-0.62 -1e-6,-0.25332 0.08667,-0.466653 0.26,-0.64 m -0.26,3.28 1.780001,0 0,7.98 c -4e-6,0.240003 0.08666,0.446669 0.259999,0.62 0.17333,0.173335 0.379997,0.260002 0.62,0.26 l 0,1.78 c -0.733336,0 -1.360002,-0.26 -1.879999,-0.78 -0.520002,-0.519999 -0.780002,-1.146665 -0.780001,-1.88 l 0,-7.98"
         style="font-size:20px"
         id="path3847" />
      <path
         d="m 43.940937,31.899409 c 0.693331,-0.693323 1.526664,-1.039989 2.500001,-1.04 0.986661,1.1e-5 1.82666,0.346677 2.519999,1.04 0.693326,0.680009 1.039992,1.513342 1.04,2.5 l -1.78,0 c -6e-6,-0.493326 -0.173339,-0.913325 -0.519999,-1.26 -0.333339,-0.346658 -0.746672,-0.519991 -1.240001,-0.52 -0.493337,9e-6 -0.913336,0.173342 -1.259999,0.52 -0.34667,0.346675 -0.520003,0.766674 -0.520001,1.26 l 0,3.54 c -2e-6,0.493337 0.173331,0.913336 0.520001,1.26 0.346663,0.333335 0.766662,0.500002 1.259999,0.5 0.493329,2e-6 0.906662,-0.173331 1.240001,-0.52 0.34666,-0.346664 0.519993,-0.759997 0.519999,-1.24 l 0,-0.02 1.78,0 0,0.02 c -8e-6,0.973336 -0.346674,1.806669 -1.04,2.5 -0.693339,0.693334 -1.533338,1.04 -2.519999,1.04 -0.973337,0 -1.80667,-0.346666 -2.500001,-1.04 -0.680001,-0.693331 -1.02,-1.526664 -1.02,-2.5 l 0,-3.54 c 0,-0.986658 0.339999,-1.819991 1.02,-2.5"
         style="font-size:20px"
         id="path3849" />
    </g>
  </g>
</svg>
