<?xml version="1.0" encoding="UTF-8" standalone="no"?>
<!-- Created with Inkscape (http://www.inkscape.org/) -->

<svg
   xmlns:dc="http://purl.org/dc/elements/1.1/"
   xmlns:cc="http://creativecommons.org/ns#"
   xmlns:rdf="http://www.w3.org/1999/02/22-rdf-syntax-ns#"
   xmlns:svg="http://www.w3.org/2000/svg"
   xmlns="http://www.w3.org/2000/svg"
   xmlns:sodipodi="http://sodipodi.sourceforge.net/DTD/sodipodi-0.dtd"
   xmlns:inkscape="http://www.inkscape.org/namespaces/inkscape"
   width="202"
   height="222"
   id="svg4121"
   version="1.1"
   inkscape:version="0.48.2 r9819"
   sodipodi:docname="cathedrale.svg">
  <defs
     id="defs4123">
    <inkscape:path-effect
       effect="spiro"
       id="path-effect3782"
       is_visible="true" />
    <inkscape:path-effect
       effect="spiro"
       id="path-effect3778"
       is_visible="true" />
    <inkscape:path-effect
       effect="spiro"
       id="path-effect3774"
       is_visible="true" />
    <inkscape:path-effect
       effect="spiro"
       id="path-effect3770"
       is_visible="true" />
    <inkscape:path-effect
       effect="spiro"
       id="path-effect3766"
       is_visible="true" />
  </defs>
  <sodipodi:namedview
     id="base"
     pagecolor="#ffffff"
     bordercolor="#666666"
     borderopacity="1.0"
     inkscape:pageopacity="0.0"
     inkscape:pageshadow="2"
     inkscape:zoom="1.8783784"
     inkscape:cx="58.121715"
     inkscape:cy="104.07736"
     inkscape:document-units="px"
     inkscape:current-layer="layer1"
     showgrid="false"
     inkscape:window-width="992"
     inkscape:window-height="713"
     inkscape:window-x="22"
     inkscape:window-y="0"
     inkscape:window-maximized="0"
     showguides="true"
     inkscape:guide-bbox="true" />
  <metadata
     id="metadata4126">
    <rdf:RDF>
      <cc:Work
         rdf:about="">
        <dc:format>image/svg+xml</dc:format>
        <dc:type
           rdf:resource="http://purl.org/dc/dcmitype/StillImage" />
        <dc:title></dc:title>
      </cc:Work>
    </rdf:RDF>
  </metadata>
  <g
     inkscape:label="Layer 1"
     inkscape:groupmode="layer"
     id="layer1"
     transform="translate(0,-830.36218)">
    <path
       style="fill:none;stroke:#000000;stroke-width:3;stroke-linecap:butt;stroke-linejoin:miter;stroke-miterlimit:4;stroke-opacity:1;stroke-dasharray:none"
       d="m 79.985612,1066.0745 0,-70.27346 5.777795,-21.56303 5.957044,22.23199 9.780639,0 9.06872,-15.70749 9.36401,16.21895 9.56258,0 6.10856,-22.79747 6.25024,23.32622 0,23.31249 16.3894,0 16.07752,-27.84717 15.52766,26.89477 0,89.3265 -178.008053,-2.1295 0,-102.7483 8.947807,-15.49803 9.460133,16.38543 0,7.0982 15.131628,0 0,-8.518 9.009577,-15.60499 9.393586,16.27019 0,103.6802"
       id="path4027"
       inkscape:connector-curvature="0"
       sodipodi:nodetypes="ccccccccccccccccccccccccc" />
    <path
       style="fill:none;stroke:#000000;stroke-width:3;stroke-linecap:butt;stroke-linejoin:miter;stroke-miterlimit:4;stroke-opacity:1;stroke-dasharray:none"
       d="m 89.035971,987.81543 21.747189,-97.18932 21.3582,96.28048"
       id="path4031"
       inkscape:connector-curvature="0"
       sodipodi:nodetypes="ccc" />
    <path
       style="fill:none;stroke:#000000;stroke-width:3;stroke-linecap:butt;stroke-linejoin:miter;stroke-miterlimit:4;stroke-opacity:1;stroke-dasharray:none"
       d="m 27.280576,1000.06 10.224655,-38.1589 10.245641,38.2372"
       id="path4033"
       inkscape:connector-curvature="0"
       sodipodi:nodetypes="ccc" />
    <path
       style="fill:none;stroke:#000000;stroke-width:3;stroke-linecap:butt;stroke-linejoin:miter;stroke-miterlimit:4;stroke-opacity:1;stroke-dasharray:none"
       d="m 75.597443,1071.1399 35.669057,-35.6691 35.93525,35.9353 z"
       id="path4039"
       inkscape:connector-curvature="0" />
    <path
       style="fill:#000000;fill-opacity:0;stroke:#000000;stroke-width:3;stroke-linecap:round;stroke-linejoin:miter;stroke-miterlimit:4;stroke-opacity:1;stroke-dasharray:none"
       d="m 110.44349,993.03148 c -2.70539,0.0882 -4.0625,7.03122 -4.0625,7.03122 l 0,17.0336 8.9375,0 0,-16.7678 c 0,0 -1.9519,-7.39033 -4.875,-7.29502 z"
       id="path4041"
       inkscape:connector-curvature="0"
       sodipodi:nodetypes="sccccs" />
    <path
       sodipodi:nodetypes="sccccs"
       inkscape:connector-curvature="0"
       id="path4049"
       d="m 98.5602,1001.2379 c -1.665635,0.058 -2.501175,4.6278 -2.501175,4.6278 l 0,11.211 5.502595,-10e-4 0,-11.0361 c 0,0 -1.20173,-4.8641 -3.00142,-4.8014 z"
       style="fill:#000000;fill-opacity:0;stroke:#000000;stroke-width:3;stroke-linecap:round;stroke-linejoin:miter;stroke-miterlimit:4;stroke-opacity:1;stroke-dasharray:none" />
    <path
       style="fill:#000000;fill-opacity:0;stroke:#000000;stroke-width:3;stroke-linecap:round;stroke-linejoin:miter;stroke-miterlimit:4;stroke-opacity:1;stroke-dasharray:none"
       d="m 88.139103,1001.2379 c -1.66564,0.058 -2.50118,4.6278 -2.50118,4.6278 l 0,11.211 5.5026,-10e-4 0,-11.0361 c 0,0 -1.20173,-4.8641 -3.00142,-4.8014 z"
       id="path4051"
       inkscape:connector-curvature="0"
       sodipodi:nodetypes="sccccs" />
    <path
       style="fill:#000000;fill-opacity:0;stroke:#000000;stroke-width:3;stroke-linecap:round;stroke-linejoin:miter;stroke-miterlimit:4;stroke-opacity:1;stroke-dasharray:none"
       d="m 133.00495,1001.2379 c -1.66564,0.058 -2.50118,4.6278 -2.50118,4.6278 l 0,11.211 5.5026,-10e-4 0,-11.0361 c 0,0 -1.20173,-4.8641 -3.00142,-4.8014 z"
       id="path4053"
       inkscape:connector-curvature="0"
       sodipodi:nodetypes="sccccs" />
    <path
       sodipodi:nodetypes="sccccs"
       inkscape:connector-curvature="0"
       id="path4055"
       d="m 122.58385,1001.2379 c -1.66564,0.058 -2.50118,4.6278 -2.50118,4.6278 l 0,11.211 5.5026,-10e-4 0,-11.0361 c 0,0 -1.20173,-4.8641 -3.00142,-4.8014 z"
       style="fill:#000000;fill-opacity:0;stroke:#000000;stroke-width:3;stroke-linecap:round;stroke-linejoin:miter;stroke-miterlimit:4;stroke-opacity:1;stroke-dasharray:none" />
    <path
       style="fill:#000000;fill-opacity:0;stroke:#000000;stroke-width:3;stroke-linecap:round;stroke-linejoin:miter;stroke-miterlimit:4;stroke-opacity:1;stroke-dasharray:none"
       d="m 168.18106,1029.8478 c -1.66564,0.058 -2.50118,4.6278 -2.50118,4.6278 l 0,11.211 5.5026,-10e-4 0,-11.0361 c 0,0 -1.20173,-4.8641 -3.00142,-4.8014 z"
       id="path4057"
       inkscape:connector-curvature="0"
       sodipodi:nodetypes="sccccs" />
    <path
       sodipodi:nodetypes="sccccs"
       inkscape:connector-curvature="0"
       id="path4059"
       d="m 178.72153,1029.8478 c -1.66564,0.058 -2.50118,4.6278 -2.50118,4.6278 l 0,11.211 5.5026,-10e-4 0,-11.0361 c 0,0 -1.20173,-4.8641 -3.00142,-4.8014 z"
       style="fill:#000000;fill-opacity:0;stroke:#000000;stroke-width:3;stroke-linecap:round;stroke-linejoin:miter;stroke-miterlimit:4;stroke-opacity:1;stroke-dasharray:none" />
    <path
       style="fill:#000000;fill-opacity:0;stroke:#000000;stroke-width:3;stroke-linecap:round;stroke-linejoin:miter;stroke-miterlimit:4;stroke-opacity:1;stroke-dasharray:none"
       d="m 29.035528,1004.8033 -16.206067,0"
       id="path4061"
       inkscape:connector-curvature="0"
       sodipodi:nodetypes="cc" />
    <path
       sodipodi:nodetypes="cc"
       inkscape:connector-curvature="0"
       id="path4063"
       d="m 63.10747,1004.8033 -16.206067,0"
       style="fill:#000000;fill-opacity:0;stroke:#000000;stroke-width:3;stroke-linecap:round;stroke-linejoin:miter;stroke-miterlimit:4;stroke-opacity:1;stroke-dasharray:none" />
    <path
       style="fill:#000000;fill-opacity:0;stroke:#000000;stroke-width:3;stroke-linecap:round;stroke-linejoin:miter;stroke-miterlimit:4;stroke-opacity:1;stroke-dasharray:none"
       d="m 188.48156,1020.7745 -28.98305,0"
       id="path4065"
       inkscape:connector-curvature="0"
       sodipodi:nodetypes="cc" />
    <path
       sodipodi:nodetypes="cc"
       inkscape:connector-curvature="0"
       id="path4067"
       d="m 141.78139,1021.988 0,42.2925"
       style="fill:#000000;fill-opacity:0;stroke:#000000;stroke-width:3;stroke-linecap:round;stroke-linejoin:miter;stroke-miterlimit:4;stroke-opacity:1;stroke-dasharray:none" />
    <path
       style="fill:#000000;fill-opacity:0;stroke:#000000;stroke-width:3;stroke-linecap:round;stroke-linejoin:miter;stroke-miterlimit:4;stroke-opacity:1;stroke-dasharray:none"
       d="m 174.5224,983.66426 0,9.81758"
       id="path4069"
       inkscape:connector-curvature="0"
       sodipodi:nodetypes="cc" />
    <path
       sodipodi:type="arc"
       style="fill:#ffffff;fill-opacity:1;stroke:#000000;stroke-width:3;stroke-linecap:round;stroke-linejoin:miter;stroke-miterlimit:4;stroke-opacity:1;stroke-dasharray:none"
       id="path4035"
       sodipodi:cx="44.719425"
       sodipodi:cy="76.129494"
       sodipodi:rx="3.7266188"
       sodipodi:ry="3.7266188"
       d="m 48.446044,76.129494 a 3.7266188,3.7266188 0 1 1 -7.453238,0 3.7266188,3.7266188 0 1 1 7.453238,0 z"
       transform="translate(-7.3165467,881.21112)" />
    <path
       style="fill:#000000;fill-opacity:0;stroke:#000000;stroke-width:3;stroke-linecap:round;stroke-linejoin:miter;stroke-miterlimit:4;stroke-opacity:1;stroke-dasharray:none"
       d="M 111.28014,892.62109 100.10028,995.60414"
       id="path4071"
       inkscape:connector-curvature="0"
       sodipodi:nodetypes="cc" />
    <path
       sodipodi:nodetypes="cc"
       inkscape:connector-curvature="0"
       id="path4073"
       d="m 110.37131,892.62109 11.17986,102.98305"
       style="fill:#000000;fill-opacity:0;stroke:#000000;stroke-width:3;stroke-linecap:round;stroke-linejoin:miter;stroke-miterlimit:4;stroke-opacity:1;stroke-dasharray:none" />
    <path
       style="fill:#000000;fill-opacity:0;stroke:#000000;stroke-width:3;stroke-linecap:round;stroke-linejoin:miter;stroke-miterlimit:4;stroke-opacity:1;stroke-dasharray:none"
       d="m 158.81736,1021.4557 0,85.9471"
       id="path4075"
       inkscape:connector-curvature="0"
       sodipodi:nodetypes="cc" />
    <path
       sodipodi:nodetypes="cc"
       inkscape:connector-curvature="0"
       id="path4077"
       d="m 188.48156,1020.7745 -28.98305,0"
       style="fill:#000000;fill-opacity:0;stroke:#000000;stroke-width:3;stroke-linecap:round;stroke-linejoin:miter;stroke-miterlimit:4;stroke-opacity:1;stroke-dasharray:none" />
    <path
       style="fill:#000000;fill-opacity:0;stroke:#000000;stroke-width:3;stroke-linecap:round;stroke-linejoin:miter;stroke-miterlimit:4;stroke-opacity:1;stroke-dasharray:none"
       d="m 79.877246,1020.7745 -13.544199,0"
       id="path4079"
       inkscape:connector-curvature="0"
       sodipodi:nodetypes="cc" />
    <path
       sodipodi:nodetypes="cc"
       inkscape:connector-curvature="0"
       id="path3009"
       d="m 37.546328,963.95921 -4.791371,47.08389"
       style="fill:#000000;fill-opacity:0;stroke:#000000;stroke-width:3;stroke-linecap:round;stroke-linejoin:miter;stroke-miterlimit:4;stroke-opacity:1;stroke-dasharray:none" />
    <path
       style="fill:#000000;fill-opacity:0;stroke:#000000;stroke-width:3;stroke-linecap:round;stroke-linejoin:miter;stroke-miterlimit:4;stroke-opacity:1;stroke-dasharray:none"
       d="m 38.078698,963.95921 4.791371,47.08389"
       id="path3013"
       inkscape:connector-curvature="0"
       sodipodi:nodetypes="cc" />
    <g
       id="g3245">
      <g
         id="g3163"
         transform="translate(0.38390765,2.9270807)">
        <path
           style="fill:none;stroke:#000000;stroke-width:3;stroke-linecap:round;stroke-linejoin:miter;stroke-miterlimit:4;stroke-opacity:1;stroke-dasharray:none"
           d="m 18.610258,851.37204 c -0.01967,-4.16951 3.649983,-5.07991 6.223102,-5.47967 3.717559,-0.57755 15.574717,-0.85988 15.231214,2.92069 -0.465352,5.12163 -10.004356,3.27958 -10.004356,3.27958 l -0.188222,8.303"
           id="path3165"
           inkscape:connector-curvature="0"
           sodipodi:nodetypes="csscc" />
        <path
           style="fill:none;stroke:#000000;stroke-width:3;stroke-linecap:round;stroke-linejoin:miter;stroke-miterlimit:4;stroke-opacity:1;stroke-dasharray:none"
           d="m 40.06115,18.633096 0.133094,11.446043"
           id="path3167"
           inkscape:connector-curvature="0"
           transform="translate(0,830.36218)"
           sodipodi:nodetypes="cc" />
      </g>
      <g
         transform="matrix(-1,0,0,-1,203.3669,1746.565)"
         id="g3157">
        <path
           sodipodi:nodetypes="csscc"
           inkscape:connector-curvature="0"
           id="path3159"
           d="m 18.610258,851.37204 c -0.01967,-4.16951 3.649983,-5.07991 6.223102,-5.47967 3.717559,-0.57755 15.574717,-0.85988 15.231214,2.92069 -0.465352,5.12163 -10.004356,3.27958 -10.004356,3.27958 l -0.188222,8.303"
           style="fill:none;stroke:#000000;stroke-width:3;stroke-linecap:round;stroke-linejoin:miter;stroke-miterlimit:4;stroke-opacity:1;stroke-dasharray:none" />
        <path
           sodipodi:nodetypes="cc"
           transform="translate(0,830.36218)"
           inkscape:connector-curvature="0"
           id="path3161"
           d="m 40.06115,18.633096 0.133094,11.446043"
           style="fill:none;stroke:#000000;stroke-width:3;stroke-linecap:round;stroke-linejoin:miter;stroke-miterlimit:4;stroke-opacity:1;stroke-dasharray:none" />
      </g>
      <path
         sodipodi:nodetypes="casssccassacc"
         inkscape:connector-curvature="0"
         id="rect3144"
         d="m 19.165468,855.64995 c 0,0 3.373394,3.01184 5.456834,3.72662 5.43417,1.86435 14.529377,1.06475 17.202338,1.06475 l 113.89479,0 c 4.48081,0 15.23462,-0.11626 22.4928,1.86331 4.49099,1.22485 6.52158,3.46043 6.52158,3.46043 l 0,28.21583 c 0,0 -3.22574,-2.77978 -5.19065,-3.46043 -7.44312,-2.57832 -18.54436,-1.86331 -23.55755,-1.86331 -13.68645,0 -114.704435,0.26619 -113.096221,0 0,0 -12.673494,0.67518 -18.533274,-1.33094 -1.967361,-0.67353 -5.190647,-3.46043 -5.190647,-3.46043 z"
         style="fill:#ffffff;fill-opacity:1;stroke:#000000;stroke-width:3;stroke-linecap:round;stroke-linejoin:miter;stroke-miterlimit:4;stroke-opacity:1" />
    </g>
  </g>
</svg>
