<?xml version="1.0" encoding="UTF-8" standalone="no"?>
<!-- Created with Inkscape (http://www.inkscape.org/) -->

<svg
   xmlns:dc="http://purl.org/dc/elements/1.1/"
   xmlns:cc="http://creativecommons.org/ns#"
   xmlns:rdf="http://www.w3.org/1999/02/22-rdf-syntax-ns#"
   xmlns:svg="http://www.w3.org/2000/svg"
   xmlns="http://www.w3.org/2000/svg"
   xmlns:xlink="http://www.w3.org/1999/xlink"
   xmlns:sodipodi="http://sodipodi.sourceforge.net/DTD/sodipodi-0.dtd"
   xmlns:inkscape="http://www.inkscape.org/namespaces/inkscape"
   width="202"
   height="222"
   id="svg4121"
   version="1.1"
   inkscape:version="0.48.2 r9819"
   sodipodi:docname="lausanne.png">
  <defs
     id="defs4123">
    <inkscape:path-effect
       effect="spiro"
       id="path-effect3782"
       is_visible="true" />
    <inkscape:path-effect
       effect="spiro"
       id="path-effect3778"
       is_visible="true" />
    <inkscape:path-effect
       effect="spiro"
       id="path-effect3774"
       is_visible="true" />
    <inkscape:path-effect
       effect="spiro"
       id="path-effect3770"
       is_visible="true" />
    <inkscape:path-effect
       effect="spiro"
       id="path-effect3766"
       is_visible="true" />
  </defs>
  <sodipodi:namedview
     id="base"
     pagecolor="#ffffff"
     bordercolor="#666666"
     borderopacity="1.0"
     inkscape:pageopacity="0.0"
     inkscape:pageshadow="2"
     inkscape:zoom="1.3338462"
     inkscape:cx="111.23761"
     inkscape:cy="103.60274"
     inkscape:document-units="px"
     inkscape:current-layer="layer1"
     showgrid="false"
     inkscape:window-width="1020"
     inkscape:window-height="647"
     inkscape:window-x="22"
     inkscape:window-y="0"
     inkscape:window-maximized="0"
     showguides="true"
     inkscape:guide-bbox="true" />
  <metadata
     id="metadata4126">
    <rdf:RDF>
      <cc:Work
         rdf:about="">
        <dc:format>image/svg+xml</dc:format>
        <dc:type
           rdf:resource="http://purl.org/dc/dcmitype/StillImage" />
        <dc:title></dc:title>
      </cc:Work>
    </rdf:RDF>
  </metadata>
  <g
     inkscape:label="Layer 1"
     inkscape:groupmode="layer"
     id="layer1"
     transform="translate(0,-830.36218)">
    <path
       style="fill:none;stroke:#000000;stroke-width:3;stroke-linecap:butt;stroke-linejoin:miter;stroke-miterlimit:4;stroke-opacity:1;stroke-dasharray:none"
       d="m -37.197758,943.36616 15.314218,-21.76233 7.254106,4.83606 45.942664,-44.59928 28.210406,12.09017 24.986355,-28.2104 7.791446,6.98543 4.5674,-2.41803 31.434453,18.80694 28.21041,-14.23954 4.5674,1.34335 9.9408,-2.82104 6.71677,-5.50775 2.25011,2.31729 3.59347,1.2426 2.88821,-1.81353 19.47861,20.55329"
       id="path4131"
       inkscape:connector-curvature="0"
       sodipodi:nodetypes="ccccccccccccccccc" />
    <path
       style="fill:none;stroke:#000000;stroke-width:3;stroke-linecap:butt;stroke-linejoin:miter;stroke-miterlimit:4;stroke-opacity:1;stroke-dasharray:none"
       d="m 128.03462,889.09471 47.55469,27.13572 2.6867,-1.61202 7.25411,8.59745 7.2541,4.29873 8.32879,4.03007 4.5674,2.6867"
       id="path4802"
       inkscape:connector-curvature="0"
       sodipodi:nodetypes="ccccccc" />
    <path
       style="fill:none;stroke:#000000;stroke-width:3;stroke-linecap:round;stroke-linejoin:miter;stroke-miterlimit:4;stroke-opacity:1"
       d="m 38.235293,972.14304 c 45.177343,-5.40414 79.044057,-5.10295 120.703567,0 26.72414,3.27349 110.53013,7.84579 116.95502,57.35296 1.53466,11.8253 -46.78315,35.8066 -76.47059,38.6101 -40.88629,3.8611 -158.744217,2.4053 -196.4244433,-1.4994 -23.8451767,-2.471 -47.9214767,-27.9476 -44.2329857,-49.8558 5.043455,-29.95613 55.66626,-41.76051 79.469432,-44.60786 z"
       id="rect3755"
       inkscape:connector-curvature="0"
       sodipodi:nodetypes="sssssas" />
    <path
       sodipodi:nodetypes="csssc"
       inkscape:connector-curvature="0"
       id="path3802"
       d="m 25.767938,1005.636 c 7.911991,0 5.235237,-6.33662 11.080445,-6.26282 6.984491,0.088 4.45576,6.26282 10.275447,6.26282 6.559701,0 4.38,-6.26282 10.55987,-6.26282 6.488863,0 3.843642,6.26282 10.379769,6.26282"
       style="fill:#000000;fill-opacity:0;stroke:#000000;stroke-width:3;stroke-linecap:butt;stroke-linejoin:miter;stroke-miterlimit:4;stroke-opacity:1;stroke-dasharray:none" />
    <use
       x="0"
       y="0"
       xlink:href="#path3802"
       id="use3808"
       transform="translate(59.227218,17.243368)"
       width="202"
       height="222" />
    <use
       x="0"
       y="0"
       xlink:href="#use3808"
       id="use3810"
       transform="translate(53.229526,-23.990773)"
       width="202"
       height="222" />
  </g>
</svg>
