<?xml version="1.0" encoding="UTF-8" standalone="no"?>
<!-- Created with Inkscape (http://www.inkscape.org/) -->

<svg
   xmlns:dc="http://purl.org/dc/elements/1.1/"
   xmlns:cc="http://creativecommons.org/ns#"
   xmlns:rdf="http://www.w3.org/1999/02/22-rdf-syntax-ns#"
   xmlns:svg="http://www.w3.org/2000/svg"
   xmlns="http://www.w3.org/2000/svg"
   version="1.1"
   width="203"
   height="222"
   id="svg2">
  <defs
     id="defs4" />
  <metadata
     id="metadata7">
    <rdf:RDF>
      <cc:Work
         rdf:about="">
        <dc:format>image/svg+xml</dc:format>
        <dc:type
           rdf:resource="http://purl.org/dc/dcmitype/StillImage" />
        <dc:title></dc:title>
      </cc:Work>
    </rdf:RDF>
  </metadata>
  <g
     transform="translate(0,-830.36218)"
     id="layer1">
    <path
       d="m 36.890872,847.06153 20.387165,12.62691 44.630823,-28.28427 47.66128,19.1929 14.83133,23.23351 37.24938,12.56002 0.3788,54.98643 0.18941,35.57443 0.1894,35.57444 c 0,0 -9.45003,18.8782 -18.30901,23.1687 -11.68468,5.659 -26.13303,-2.077 -38.94872,0 -14.73317,2.3878 -27.56903,14.6935 -42.48425,14.1421 -12.234874,-0.4523 -21.839897,-12.0208 -33.897958,-14.1421 -14.128624,-2.4855 -29.738026,7.5156 -42.989328,2.0203 -10.637302,-4.4113 -23.233509,-25.5678 -23.233509,-25.5678 l 0,-35.5113 0,-35.5113 0,-54.86017 z"
       id="rect2985"
       style="fill:none;stroke:#000000;stroke-width:3;stroke-miterlimit:4;stroke-opacity:1;stroke-dasharray:none" />
    <path
       d="m 433.50207,820.48411 c -14.92519,0.0785 -27.74224,-6.29879 -41.76994,-5.57067 -15.03068,0.78019 -28.84885,10.33782 -43.89796,10.57067 -11.47429,0.17755 -22.22941,-7.20367 -33.7036,-7.0203 -8.45667,0.13515 -24.66209,5.96519 -24.66209,5.96519 l 0,45.19423 c 0,0 12.5962,21.1566 23.23351,25.5679 13.2513,5.4953 28.8607,-4.5058 42.98932,-2.0203 12.05806,2.1213 21.66309,13.6898 33.89796,14.1421 14.91522,0.5514 27.75113,-11.7543 42.48423,-14.1421 12.8157,-2.077 27.2641,5.659 38.9487,0 8.859,-4.2905 18.3091,-23.1687 18.3091,-23.1687 l -0.095,-45.60473 c 0,0 -9.84845,-3.60481 -28.92869,-8.199 -14.21882,-3.49131 -12.42465,3.45308 -26.80554,4.28571 z"
       id="path3867"
       style="fill:#000000;stroke:#000000;stroke-width:3;stroke-miterlimit:4;stroke-opacity:1;stroke-dasharray:none" />
  </g>
</svg>
