<?xml version="1.0" encoding="UTF-8" standalone="no"?>
<!-- Created with Inkscape (http://www.inkscape.org/) -->

<svg
   xmlns:dc="http://purl.org/dc/elements/1.1/"
   xmlns:cc="http://creativecommons.org/ns#"
   xmlns:rdf="http://www.w3.org/1999/02/22-rdf-syntax-ns#"
   xmlns:svg="http://www.w3.org/2000/svg"
   xmlns="http://www.w3.org/2000/svg"
   xmlns:sodipodi="http://sodipodi.sourceforge.net/DTD/sodipodi-0.dtd"
   xmlns:inkscape="http://www.inkscape.org/namespaces/inkscape"
   width="650"
   height="222"
   id="svg2"
   version="1.1"
   inkscape:version="0.48.2 r9819"
   sodipodi:docname="INFOS.png">
  <defs
     id="defs4" />
  <sodipodi:namedview
     id="base"
     pagecolor="#ffffff"
     bordercolor="#666666"
     borderopacity="1.0"
     inkscape:pageopacity="0.0"
     inkscape:pageshadow="2"
     inkscape:zoom="0.927645"
     inkscape:cx="264.87858"
     inkscape:cy="90.220191"
     inkscape:document-units="px"
     inkscape:current-layer="layer1"
     showgrid="false"
     inkscape:window-width="1113"
     inkscape:window-height="724"
     inkscape:window-x="139"
     inkscape:window-y="0"
     inkscape:window-maximized="0"
     fit-margin-top="0"
     fit-margin-left="0"
     fit-margin-right="0"
     fit-margin-bottom="0" />
  <metadata
     id="metadata7">
    <rdf:RDF>
      <cc:Work
         rdf:about="">
        <dc:format>image/svg+xml</dc:format>
        <dc:type
           rdf:resource="http://purl.org/dc/dcmitype/StillImage" />
        <dc:title></dc:title>
      </cc:Work>
    </rdf:RDF>
  </metadata>
  <g
     inkscape:label="Layer 1"
     inkscape:groupmode="layer"
     id="layer1"
     transform="translate(-0.99859536,-829.8868)">
    <path
       inkscape:connector-curvature="0"
       id="path2987"
       style="font-size:180px;font-style:normal;font-variant:normal;font-weight:bold;font-stretch:normal;line-height:125%;letter-spacing:0px;word-spacing:0px;fill:#000000;fill-opacity:1;stroke:none;font-family:Logisoso;-inkscape-font-specification:Logisoso Bold"
       d="m 38.205344,880.01902 c -1.6e-5,-0.59987 0.299984,-0.89987 0.9,-0.9 l 13.86,0 c 0.599969,1.3e-4 0.899969,0.30013 0.9,0.9 l 0,124.01998 c -3.1e-5,0.6 -0.300031,0.9 -0.9,0.9 l -13.86,0 c -0.600016,0 -0.900016,-0.3 -0.9,-0.9 l 0,-124.01998" />
    <path
       inkscape:connector-curvature="0"
       id="path2989"
       style="font-size:180px;font-style:normal;font-variant:normal;font-weight:bold;font-stretch:normal;line-height:125%;letter-spacing:0px;word-spacing:0px;fill:#000000;fill-opacity:1;stroke:none;font-family:Logisoso;-inkscape-font-specification:Logisoso Bold"
       d="m 78.654719,1004.039 0,-124.01998 c -9e-6,-0.59987 0.299991,-0.89987 0.9,-0.9 l 14.22,0 c 0.479975,1.3e-4 0.779975,0.18013 0.9,0.54 l 29.340001,76.68 c 0.23994,0.60005 0.65994,0.78005 1.26,0.54 0.35994,-0.23995 0.53994,-0.53995 0.53999,-0.9 l 0,-75.96 c -5e-5,-0.59987 0.35995,-0.89987 1.08001,-0.9 l 13.86,0 c 0.59992,1.3e-4 0.89992,0.30013 0.89999,0.9 l 0,124.01998 c -7e-5,0.6 -0.30007,0.9 -0.89999,0.9 l -14.22001,0 c -0.48005,0 -0.78005,-0.18 -0.9,-0.54 L 96.294719,927.71902 c -0.240026,-0.59992 -0.660026,-0.77992 -1.26,-0.54 -0.360025,0.12008 -0.540025,0.42008 -0.54,0.9 l 0,75.95998 c -2.5e-5,0.6 -0.360024,0.9 -1.08,0.9 l -13.86,0 c -0.600009,0 -0.900009,-0.3 -0.9,-0.9" />
    <path
       inkscape:connector-curvature="0"
       id="path2991"
       style="font-size:180px;font-style:normal;font-variant:normal;font-weight:bold;font-stretch:normal;line-height:125%;letter-spacing:0px;word-spacing:0px;fill:#000000;fill-opacity:1;stroke:none;font-family:Logisoso;-inkscape-font-specification:Logisoso Bold"
       d="m 168.13808,1004.039 0,-124.01998 c -1e-5,-0.59987 0.29999,-0.89987 0.9,-0.9 l 61.2,0 c 0.59993,1.3e-4 0.89993,0.30013 0.9,0.9 l 0,13.86 c -7e-5,0.60011 -0.30007,0.90011 -0.9,0.9 l -45.36,0 c -0.60003,1.1e-4 -0.90002,0.30011 -0.9,0.9 l 0,37.44 c -2e-5,0.72007 0.29997,1.08007 0.9,1.08 l 29.52,0 c 0.59994,7e-5 0.89994,0.30007 0.9,0.9 l 0,13.86 c -6e-5,0.60006 -0.30006,0.90006 -0.9,0.9 l -29.52,0 c -0.60003,6e-5 -0.90002,0.30006 -0.9,0.9 l 0,53.27998 c -2e-5,0.6 -0.36002,0.9 -1.08,0.9 l -13.86,0 c -0.60001,0 -0.90001,-0.3 -0.9,-0.9" />
    <path
       inkscape:connector-curvature="0"
       id="path2993"
       style="font-size:180px;font-style:normal;font-variant:normal;font-weight:bold;font-stretch:normal;line-height:125%;letter-spacing:0px;word-spacing:0px;fill:#000000;fill-opacity:1;stroke:none;font-family:Logisoso;-inkscape-font-specification:Logisoso Bold"
       d="m 252.78746,888.29902 c 6.23998,-6.11988 13.67997,-9.17987 22.32,-9.18 8.63996,1.3e-4 16.01995,3.06012 22.14,9.18 6.23994,6.12011 9.35993,13.5001 9.36,22.14 l 0,63 c -7e-5,8.76002 -3.12006,16.20002 -9.36,22.32 -6.12005,6.11998 -13.50004,9.17998 -22.14,9.17998 -8.64003,0 -16.08002,-3.06 -22.32,-9.17998 -6.12001,-6.11998 -9.18,-13.55998 -9.18,-22.32 l 0,-63 c 0,-8.6399 3.05999,-16.01989 9.18,-22.14 m 33.30001,11.16 c -3.00005,-3.11989 -6.66005,-4.67989 -10.98001,-4.68 -4.32003,1.1e-4 -8.04003,1.56011 -11.16,4.68 -3.00002,3.0001 -4.50002,6.6601 -4.5,10.98 l 0,63 c -2e-5,4.32003 1.49998,8.04003 4.5,11.16 3.11997,3.12002 6.83997,4.68002 11.16,4.68 4.31996,2e-5 7.97996,-1.55998 10.98001,-4.68 3.11994,-3.11997 4.67994,-6.83997 4.67999,-11.16 l 0,-63 c -5e-5,-4.3199 -1.56005,-7.9799 -4.67999,-10.98" />
    <path
       inkscape:connector-curvature="0"
       id="path2995"
       style="font-size:180px;font-style:normal;font-variant:normal;font-weight:bold;font-stretch:normal;line-height:125%;letter-spacing:0px;word-spacing:0px;fill:#000000;fill-opacity:1;stroke:none;font-family:Logisoso;-inkscape-font-specification:Logisoso Bold"
       d="m 387.46684,909.53902 c -0.24007,-8.63989 -3.54007,-15.95989 -9.9,-21.96 -6.36006,-5.99987 -13.92005,-8.81987 -22.68,-8.46 -8.64003,0.24013 -15.96002,3.54012 -21.96,9.9 -5.88001,6.24011 -8.70001,13.7401 -8.46,22.5 0.11999,4.32009 1.07999,8.46009 2.88,12.42 1.91999,3.96008 4.49998,7.38008 7.74,10.26 l 31.32,27.54 c 3.23995,2.88004 4.97994,6.48004 5.22,10.8 0.23994,4.32003 -1.08006,8.10003 -3.96,11.34 -2.88005,3.24002 -6.48005,5.04002 -10.8,5.4 -4.32004,0.24002 -8.10003,-1.07998 -11.34,-3.96 -3.24003,-2.99998 -4.98003,-6.65997 -5.22,-10.98 -0.12002,-0.59997 -0.48002,-0.89997 -1.08,-0.9 l -13.86,0 c -0.60001,3e-5 -0.90001,0.30003 -0.9,0.9 0.23999,8.76002 3.53999,16.14002 9.9,22.14 6.35997,5.87998 13.85997,8.69998 22.5,8.45998 8.75995,-0.24 16.07994,-3.54 21.96,-9.89998 5.99993,-6.35998 8.87993,-13.85997 8.64,-22.5 -0.12007,-4.31996 -1.14007,-8.45996 -3.06,-12.42 -1.80007,-3.95995 -4.32006,-7.37995 -7.56,-10.26 l -31.32,-27.54 c -3.24003,-2.87991 -4.98003,-6.53991 -5.22,-10.98 -0.24002,-4.3199 1.07997,-8.0999 3.96,-11.34 2.87997,-3.23989 6.47996,-4.97989 10.8,-5.22 4.31996,-0.23989 8.09995,1.08011 11.34,3.96 3.23995,2.88011 4.97994,6.5401 5.22,10.98 0.11994,0.4801 0.47994,0.7201 1.08,0.72 l 13.86,0 c 0.59993,10e-5 0.89993,-0.2999 0.9,-0.9" />
  </g>
</svg>
