<?xml version="1.0" encoding="UTF-8" standalone="no"?>
<!-- Created with Inkscape (http://www.inkscape.org/) -->

<svg
   xmlns:dc="http://purl.org/dc/elements/1.1/"
   xmlns:cc="http://creativecommons.org/ns#"
   xmlns:rdf="http://www.w3.org/1999/02/22-rdf-syntax-ns#"
   xmlns:svg="http://www.w3.org/2000/svg"
   xmlns="http://www.w3.org/2000/svg"
   xmlns:sodipodi="http://sodipodi.sourceforge.net/DTD/sodipodi-0.dtd"
   xmlns:inkscape="http://www.inkscape.org/namespaces/inkscape"
   width="900"
   height="222"
   id="svg2"
   version="1.1"
   inkscape:version="0.48.2 r9819"
   sodipodi:docname="PREAMBULLE.png">
  <defs
     id="defs4" />
  <sodipodi:namedview
     id="base"
     pagecolor="#ffffff"
     bordercolor="#666666"
     borderopacity="1.0"
     inkscape:pageopacity="0.0"
     inkscape:pageshadow="2"
     inkscape:zoom="0.927645"
     inkscape:cx="410.7727"
     inkscape:cy="90.220191"
     inkscape:document-units="px"
     inkscape:current-layer="layer1"
     showgrid="false"
     inkscape:window-width="1113"
     inkscape:window-height="724"
     inkscape:window-x="139"
     inkscape:window-y="0"
     inkscape:window-maximized="0"
     fit-margin-top="0"
     fit-margin-left="0"
     fit-margin-right="0"
     fit-margin-bottom="0" />
  <metadata
     id="metadata7">
    <rdf:RDF>
      <cc:Work
         rdf:about="">
        <dc:format>image/svg+xml</dc:format>
        <dc:type
           rdf:resource="http://purl.org/dc/dcmitype/StillImage" />
        <dc:title></dc:title>
      </cc:Work>
    </rdf:RDF>
  </metadata>
  <g
     inkscape:label="Layer 1"
     inkscape:groupmode="layer"
     id="layer1"
     transform="translate(-0.99859536,-829.8868)">
    <path
       inkscape:connector-curvature="0"
       id="path3025"
       style="font-size:180px;font-style:normal;font-variant:normal;font-weight:bold;font-stretch:normal;line-height:125%;letter-spacing:0px;word-spacing:0px;fill:#000000;fill-opacity:1;stroke:none;font-family:Logisoso;-inkscape-font-specification:Logisoso Bold"
       d="m 32.445344,879.11902 24.3,0 c 10.439955,1.3e-4 19.319946,3.66012 26.64,10.98 7.439932,7.32011 11.159928,16.2001 11.16,26.64 -7.2e-5,10.44008 -3.720068,19.38007 -11.16,26.82 -7.320054,7.32006 -16.200045,10.98005 -26.64,10.98 l -8.46,0 c -0.600025,5e-5 -0.900025,0.30005 -0.9,0.9 l 0,48.59998 c -2.5e-5,0.6 -0.360024,0.9 -1.08,0.9 l -13.86,0 c -0.600009,0 -0.900009,-0.3 -0.9,-0.9 l 0,-124.01998 c -9e-6,-0.59987 0.299991,-0.89987 0.9,-0.9 m 15.84,15.66 c -0.600025,1.1e-4 -0.900025,0.30011 -0.9,0.9 l 0,42.3 c -2.5e-5,0.60007 0.299975,0.90007 0.9,0.9 l 8.46,0 c 6.11996,7e-5 11.339954,-2.15993 15.66,-6.48 4.319946,-4.31992 6.479944,-9.47992 6.48,-15.48 -5.6e-5,-6.1199 -2.160054,-11.3399 -6.48,-15.66 -4.320046,-4.31989 -9.54004,-6.47989 -15.66,-6.48 l -8.46,0" />
    <path
       inkscape:connector-curvature="0"
       id="path3027"
       style="font-size:180px;font-style:normal;font-variant:normal;font-weight:bold;font-stretch:normal;line-height:125%;letter-spacing:0px;word-spacing:0px;fill:#000000;fill-opacity:1;stroke:none;font-family:Logisoso;-inkscape-font-specification:Logisoso Bold"
       d="m 113.30472,879.11902 24.29999,0 c 6.59996,1.3e-4 12.71996,1.62013 18.36,4.86 5.75995,3.12012 10.37994,7.50012 13.86001,13.14 3.47993,5.7601 5.27992,12.0001 5.39999,18.72 0.23993,6.72008 -1.20007,13.02008 -4.32,18.9 -3.12006,5.88007 -7.62005,10.62006 -13.5,14.22 -0.48005,0.36006 -0.60005,0.72006 -0.36,1.08 l 17.82,53.63998 c 0.11993,0.12 0.17993,0.24 0.18,0.36 -7e-5,0.6 -0.36007,0.9 -1.08,0.9 l -14.58,0 c -0.36005,0 -0.66005,-0.18 -0.9,-0.54 l -16.38,-49.31998 c -0.12003,-0.47995 -0.48003,-0.65995 -1.08,-0.54 -1.08003,0.12005 -2.22003,0.18005 -3.42,0.18 l -8.45999,0 c -0.72003,5e-5 -1.08003,0.30005 -1.08001,0.9 l 0,48.41998 c -2e-5,0 -0.30002,0.3 -0.89999,0.9 l -13.86,0 c -0.60001,0 -0.90001,-0.3 -0.9,-0.9 l 0,-124.01998 c -1e-5,-0.59987 0.29999,-0.89987 0.9,-0.9 m 15.84,15.84 c -0.60003,1.1e-4 -0.90003,0.30011 -0.9,0.9 l 0,42.12 c -3e-5,0.60007 0.29997,0.90007 0.9,0.9 l 8.45999,0 c 6.11996,7e-5 11.33996,-2.09993 15.66001,-6.3 4.31994,-4.31992 6.47994,-9.53992 6.47999,-15.66 -5e-5,-6.1199 -2.16005,-11.2799 -6.47999,-15.48 -4.32005,-4.31989 -9.54005,-6.47989 -15.66001,-6.48 l -8.45999,0" />
    <path
       inkscape:connector-curvature="0"
       id="path3029"
       style="font-size:180px;font-style:normal;font-variant:normal;font-weight:bold;font-stretch:normal;line-height:125%;letter-spacing:0px;word-spacing:0px;fill:#000000;fill-opacity:1;stroke:none;font-family:Logisoso;-inkscape-font-specification:Logisoso Bold"
       d="m 256.26409,880.01902 0,13.86 c -7e-5,0.60011 -0.30007,0.90011 -0.9,0.9 l -45.36,0 c -0.60003,1.1e-4 -0.90002,0.30011 -0.9,0.9 l 0,37.44 c -2e-5,0.72007 0.29997,1.08007 0.9,1.08 l 29.52,0 c 0.59994,7e-5 0.89994,0.30007 0.9,0.9 l 0,13.86 c -6e-5,0.60006 -0.30006,0.90006 -0.9,0.9 l -29.52,0 c -0.60003,6e-5 -0.90002,0.30006 -0.9,0.9 l 0,37.44 c -2e-5,0.72002 0.29997,1.08002 0.9,1.08 l 45.36,0 c 0.59993,2e-5 0.89993,0.30002 0.9,0.9 l 0,13.85998 c -7e-5,0.6 -0.30007,0.9 -0.9,0.9 l -61.2,0 c -0.60001,0 -0.90001,-0.3 -0.9,-0.9 l 0,-124.01998 c -1e-5,-0.59987 0.29999,-0.89987 0.9,-0.9 l 61.2,0 c 0.59993,1.3e-4 0.89993,0.30013 0.9,0.9" />
    <path
       inkscape:connector-curvature="0"
       id="path3031"
       style="font-size:180px;font-style:normal;font-variant:normal;font-weight:bold;font-stretch:normal;line-height:125%;letter-spacing:0px;word-spacing:0px;fill:#000000;fill-opacity:1;stroke:none;font-family:Logisoso;-inkscape-font-specification:Logisoso Bold"
       d="m 336.94346,1004.579 c -7e-5,0.12 -7e-5,0.18 0,0.18 -7e-5,0.6 -0.30007,0.9 -0.89999,0.9 l -13.86001,0 c -0.60005,0 -0.90005,-0.24 -0.9,-0.72 l -4.14,-22.13998 c -0.12005,-0.47998 -0.42005,-0.71997 -0.9,-0.72 l -21.06,0 c -0.60002,3e-5 -0.96002,0.24002 -1.07999,0.72 l -4.14,22.13998 c -3e-5,0.48 -0.30003,0.72 -0.90001,0.72 l -13.86,0 c -1e-5,0 -1e-5,0 0,0 -0.72,-0.12 -1.02,-0.48 -0.9,-1.08 l 23.4,-124.01998 c -3e-5,-0.47987 0.29997,-0.71987 0.90001,-0.72 l 14.03999,0 c 0.59996,1.3e-4 0.95996,0.24013 1.08001,0.72 l 23.21999,124.01998 m -24.12,-38.15998 c 0.59996,4e-5 0.89996,-0.35996 0.90001,-1.08 -5e-5,4e-5 -5e-5,-0.06 0,-0.18 l -7.20001,-38.52 c -0.12004,-0.59992 -0.48004,-0.83992 -1.08,-0.72 -0.36003,0.12008 -0.60003,0.36008 -0.71999,0.72 l -7.20001,38.52 c -0.12003,0.72004 0.11997,1.14004 0.72,1.26 -3e-5,4e-5 0.06,4e-5 0.18,0 l 14.4,0" />
    <path
       inkscape:connector-curvature="0"
       id="path3033"
       style="font-size:180px;font-style:normal;font-variant:normal;font-weight:bold;font-stretch:normal;line-height:125%;letter-spacing:0px;word-spacing:0px;fill:#000000;fill-opacity:1;stroke:none;font-family:Logisoso;-inkscape-font-specification:Logisoso Bold"
       d="m 417.98284,1004.039 c -7e-5,0.6 -0.30007,0.9 -0.9,0.9 l -13.86,0 c -0.72006,0 -1.08006,-0.3 -1.08,-0.9 l 0,-70.73998 c -6e-5,-0.71993 -0.30006,-1.07993 -0.9,-1.08 -0.48005,7e-5 -0.78005,0.24007 -0.9,0.72 l -12.96,37.98 c -0.12004,0.24004 -0.30004,0.42004 -0.54,0.54 -0.60004,0.24004 -1.02004,0.06 -1.26,-0.54 l -12.96,-37.98 c -0.24003,-0.59993 -0.66003,-0.77993 -1.26,-0.54 -0.36003,0.12007 -0.54002,0.42007 -0.54,0.9 l 0,70.73998 c -2e-5,0.6 -0.36002,0.9 -1.08,0.9 l -13.86,0 c -0.60001,0 -0.90001,-0.3 -0.9,-0.9 l 0,-124.01998 c -1e-5,-0.59987 0.29999,-0.89987 0.9,-0.9 l 14.22,0 c 0.47998,1.3e-4 0.77998,0.18013 0.9,0.54 l 14.58,42.66 c 0.23996,0.60008 0.65996,0.78008 1.26,0.54 0.23996,8e-5 0.41996,-0.17992 0.54,-0.54 l 14.58,-42.66 c 0.11994,-0.35987 0.41994,-0.53987 0.9,-0.54 l 14.22,0 c 0.59993,1.3e-4 0.89993,0.30013 0.9,0.9 l 0,124.01998" />
    <path
       inkscape:connector-curvature="0"
       id="path3035"
       style="font-size:180px;font-style:normal;font-variant:normal;font-weight:bold;font-stretch:normal;line-height:125%;letter-spacing:0px;word-spacing:0px;fill:#000000;fill-opacity:1;stroke:none;font-family:Logisoso;-inkscape-font-specification:Logisoso Bold"
       d="m 484.44222,937.61902 c 4.55993,3.48007 8.09993,7.86006 10.62,13.14 2.51992,5.16005 3.77992,10.62005 3.77999,16.38 -7e-5,10.44003 -3.72006,19.38002 -11.15999,26.82 -7.32006,7.31998 -16.20005,10.97998 -26.64001,10.97998 l -24.3,0 c -0.6,0 -0.9,-0.3 -0.9,-0.9 l 0,-124.01998 c 0,-0.59987 0.3,-0.89987 0.9,-0.9 l 26.64001,0 c 4.91995,1.3e-4 9.59995,1.02013 14.03999,3.06 4.43995,2.04012 8.27995,4.98012 11.52001,8.82 5.75993,7.08011 8.21992,15.1801 7.38,24.3 -0.84007,9.00008 -4.80007,16.44008 -11.88,22.32 m -32.76,-41.94 0,32.76 c -3e-5,0.60008 0.29997,0.90008 0.89999,0.9 l 10.80001,0 c 4.79995,8e-5 8.87995,-1.67992 12.23999,-5.04 3.35995,-3.35991 5.03995,-7.43991 5.04,-12.24 -5e-5,-4.7999 -1.68005,-8.8799 -5.04,-12.24 -3.36004,-3.35989 -7.44004,-5.03989 -12.23999,-5.04 l -10.80001,0 c -0.60002,1.1e-4 -0.90002,0.30011 -0.89999,0.9 m 9.35999,93.6 c 6.11996,2e-5 11.27996,-2.15998 15.48,-6.48 4.31995,-4.31997 6.47995,-9.53997 6.48,-15.66 -5e-5,-6.11995 -2.16005,-11.27995 -6.48,-15.48 -4.20004,-4.31994 -9.36004,-6.47994 -15.48,-6.48 l -8.46,0 c -0.60002,6e-5 -0.90002,0.30006 -0.89999,0.9 l 0,42.12 c -3e-5,0.72002 0.29997,1.08002 0.89999,1.08 l 8.46,0" />
    <path
       inkscape:connector-curvature="0"
       id="path3037"
       style="font-size:180px;font-style:normal;font-variant:normal;font-weight:bold;font-stretch:normal;line-height:125%;letter-spacing:0px;word-spacing:0px;fill:#000000;fill-opacity:1;stroke:none;font-family:Logisoso;-inkscape-font-specification:Logisoso Bold"
       d="m 579.70159,973.43902 c -7e-5,8.76002 -3.12007,16.20002 -9.36,22.32 -6.12006,6.11998 -13.50005,9.17998 -22.14,9.17998 -8.64003,0 -16.08002,-3.06 -22.32,-9.17998 -6.12001,-6.11998 -9.18001,-13.55998 -9.18,-22.32 l 0,-93.42 c -10e-6,-0.59987 0.29999,-0.89987 0.9,-0.9 l 13.86,0 c 0.71998,1.3e-4 1.07998,0.30013 1.08,0.9 l 0,93.42 c -2e-5,4.32003 1.49997,8.04003 4.5,11.16 3.11997,3.12002 6.83996,4.68002 11.16,4.68 4.31996,2e-5 7.97995,-1.55998 10.98,-4.68 3.11995,-3.11997 4.67994,-6.83997 4.68,-11.16 l 0,-93.42 c -6e-5,-0.59987 0.35994,-0.89987 1.08,-0.9 l 13.86,0 c 0.59993,1.3e-4 0.89993,0.30013 0.9,0.9 l 0,93.42" />
    <path
       inkscape:connector-curvature="0"
       id="path3039"
       style="font-size:180px;font-style:normal;font-variant:normal;font-weight:bold;font-stretch:normal;line-height:125%;letter-spacing:0px;word-spacing:0px;fill:#000000;fill-opacity:1;stroke:none;font-family:Logisoso;-inkscape-font-specification:Logisoso Bold"
       d="m 612.32096,879.11902 c 0.71998,1.3e-4 1.07998,0.30013 1.08001,0.9 l 0,108.18 c -3e-5,0.72002 0.29997,1.08002 0.89999,1.08 l 45.36001,0 c 0.59992,2e-5 0.89992,0.30002 0.89999,0.9 l 0,13.85998 c -7e-5,0.6 -0.30007,0.9 -0.89999,0.9 l -61.20001,0 c -0.6,0 -0.9,-0.3 -0.9,-0.9 l 0,-124.01998 c 0,-0.59987 0.3,-0.89987 0.9,-0.9 l 13.86,0" />
    <path
       inkscape:connector-curvature="0"
       id="path3041"
       style="font-size:180px;font-style:normal;font-variant:normal;font-weight:bold;font-stretch:normal;line-height:125%;letter-spacing:0px;word-spacing:0px;fill:#000000;fill-opacity:1;stroke:none;font-family:Logisoso;-inkscape-font-specification:Logisoso Bold"
       d="m 693.18034,879.11902 c 0.71998,1.3e-4 1.07998,0.30013 1.08,0.9 l 0,108.18 c -2e-5,0.72002 0.29997,1.08002 0.9,1.08 l 45.36,0 c 0.59993,2e-5 0.89993,0.30002 0.9,0.9 l 0,13.85998 c -7e-5,0.6 -0.30007,0.9 -0.9,0.9 l -61.2,0 c -0.60001,0 -0.90001,-0.3 -0.9,-0.9 l 0,-124.01998 c -10e-6,-0.59987 0.29999,-0.89987 0.9,-0.9 l 13.86,0" />
    <path
       inkscape:connector-curvature="0"
       id="path3043"
       style="font-size:180px;font-style:normal;font-variant:normal;font-weight:bold;font-stretch:normal;line-height:125%;letter-spacing:0px;word-spacing:0px;fill:#000000;fill-opacity:1;stroke:none;font-family:Logisoso;-inkscape-font-specification:Logisoso Bold"
       d="m 822.27971,880.01902 0,13.86 c -7e-5,0.60011 -0.30007,0.90011 -0.89999,0.9 l -45.36001,0 c -0.60002,1.1e-4 -0.90002,0.30011 -0.89999,0.9 l 0,37.44 c -3e-5,0.72007 0.29997,1.08007 0.89999,1.08 l 29.52,0 c 0.59995,7e-5 0.89995,0.30007 0.9,0.9 l 0,13.86 c -5e-5,0.60006 -0.30005,0.90006 -0.9,0.9 l -29.52,0 c -0.60002,6e-5 -0.90002,0.30006 -0.89999,0.9 l 0,37.44 c -3e-5,0.72002 0.29997,1.08002 0.89999,1.08 l 45.36001,0 c 0.59992,2e-5 0.89992,0.30002 0.89999,0.9 l 0,13.85998 c -7e-5,0.6 -0.30007,0.9 -0.89999,0.9 l -61.20001,0 c -0.6,0 -0.9,-0.3 -0.9,-0.9 l 0,-124.01998 c 0,-0.59987 0.3,-0.89987 0.9,-0.9 l 61.20001,0 c 0.59992,1.3e-4 0.89992,0.30013 0.89999,0.9" />
  </g>
</svg>
