<?xml version="1.0" encoding="UTF-8" standalone="no"?>
<!-- Created with Inkscape (http://www.inkscape.org/) -->

<svg
   xmlns:dc="http://purl.org/dc/elements/1.1/"
   xmlns:cc="http://creativecommons.org/ns#"
   xmlns:rdf="http://www.w3.org/1999/02/22-rdf-syntax-ns#"
   xmlns:svg="http://www.w3.org/2000/svg"
   xmlns="http://www.w3.org/2000/svg"
   xmlns:sodipodi="http://sodipodi.sourceforge.net/DTD/sodipodi-0.dtd"
   xmlns:inkscape="http://www.inkscape.org/namespaces/inkscape"
   width="202"
   height="460"
   id="svg3970"
   version="1.1"
   inkscape:version="0.48.2 r9819"
   sodipodi:docname="New document 11">
  <defs
     id="defs3972">
    <inkscape:path-effect
       effect="spiro"
       id="path-effect3984"
       is_visible="true" />
    <inkscape:path-effect
       effect="spiro"
       id="path-effect3980"
       is_visible="true" />
  </defs>
  <sodipodi:namedview
     id="base"
     pagecolor="#ffffff"
     bordercolor="#666666"
     borderopacity="1.0"
     inkscape:pageopacity="0.0"
     inkscape:pageshadow="2"
     inkscape:zoom="1.1195652"
     inkscape:cx="155.15244"
     inkscape:cy="240.49449"
     inkscape:document-units="px"
     inkscape:current-layer="layer1"
     showgrid="false"
     inkscape:window-width="843"
     inkscape:window-height="733"
     inkscape:window-x="98"
     inkscape:window-y="0"
     inkscape:window-maximized="0" />
  <metadata
     id="metadata3975">
    <rdf:RDF>
      <cc:Work
         rdf:about="">
        <dc:format>image/svg+xml</dc:format>
        <dc:type
           rdf:resource="http://purl.org/dc/dcmitype/StillImage" />
        <dc:title></dc:title>
      </cc:Work>
    </rdf:RDF>
  </metadata>
  <g
     inkscape:label="Layer 1"
     inkscape:groupmode="layer"
     id="layer1"
     transform="translate(0,-592.36217)">
    <path
       style="fill:none;stroke:#000000;stroke-width:2.5;stroke-linecap:butt;stroke-linejoin:miter;stroke-miterlimit:4;stroke-opacity:1;stroke-dasharray:none"
       d="m 86.640777,460.8932 c 0,0 3.555157,-8.94333 4.342551,-11.03694 0.787393,-2.0936 -14.135235,-0.90421 -23.429084,11.75073 l -11.263507,0.0983 c 18.939444,-26.09483 39.05857,-19.54513 40.028177,-20.85977 1.93921,-2.62927 4.095896,-4.78387 6.399536,-5.8552 13.61787,-6.33313 18.68778,-3.91139 27.68932,-1.78641 3.86701,0.91288 17.24815,9.51789 21.57789,12.30711 3.73751,-5.82427 3.16143,-5.17581 7.12229,-6.74975 5.11323,-2.03185 8.49858,-2.03872 8.49858,-2.03872 l 0.3158,-335.79048 -49.12621,-37.514564 3.14865,-3.671883 23.64746,14.390329 3.57282,-9.825242 c -5.94772,-9.335609 -8.31002,-18.933923 -2.47219,-27.427708 17.0674,15.305863 6.45562,29.106714 6.45562,29.106714 l -3.35184,10.564235 18.12569,13.659671 0,-92.4466017 36.62136,0 -0.2233,464.2427197 c -13.9812,-0.0811 -25.96253,0.2476 -40.15316,0.0438 -11.91729,1.95747 -17.54451,-1.8821 -21.23376,-0.35961 l -26.18538,0.0925 c 0,0 5.47646,-5.37592 9.04041,-7.29888 5.50879,-2.97232 16.23092,-3.41957 16.23092,-3.41957 -9.2398,-5.82021 -12.75281,-14.04656 -33.57177,-8.61624 -6.68846,3.62633 -12.874834,19.33469 -12.874834,19.33469 z"
       id="path4496"
       inkscape:connector-curvature="0"
       transform="translate(0,592.36217)"
       sodipodi:nodetypes="csccssscsccccccccccccccccscccc" />
  </g>
</svg>
